<?xml version="1.0" encoding="utf-8"?>
<!-- Generator: Adobe Illustrator 19.2.1, SVG Export Plug-In . SVG Version: 6.00 Build 0)  -->
<svg version="1.1" id="layer" xmlns="http://www.w3.org/2000/svg" xmlns:xlink="http://www.w3.org/1999/xlink" x="0px" y="0px"
	 viewBox="0 0 652 652" style="enable-background:new 0 0 652 652;" xml:space="preserve">
<style type="text/css">
	.st0{fill:#9F8A46;}
</style>
<path class="st0" d="M575.3,236.8H569v-24.1h-13.7l-17.2,24.1v7.7h22.7v6.3h8.2v-6.3h6.3V236.8L575.3,236.8z M560.7,236.8H547
	l0.1-0.1l13.5-18.8h0.2L560.7,236.8L560.7,236.8z M493.9,249.1c2.5,1.6,5.7,2.5,9.4,2.5c5.3,0,9.4-1.8,12.1-5.4
	c2.7-3.6,4.1-9,4.1-16c0-11.7-6.2-18.4-17.1-18.4c-9.3,0-16.1,5.6-16.1,13.3c0,3.7,1.5,7,4.2,9.3c2.8,2.4,6.6,3.6,11.1,3.6
	c4.1,0,7.3-1,9.5-3l0,0h0.2v0.1c-0.4,6.3-3.2,9.5-8.1,9.5c-3.7,0-5.8-1.3-7.2-4.6l-7.5,2.3C489.7,245.2,491.5,247.5,493.9,249.1
	L493.9,249.1z M502.7,231.5c-5.2,0-8.3-2.4-8.3-6.3s3.1-6.3,8.3-6.3c4.7,0,8.3,2.8,8.3,6.4C511,229.1,507.9,231.5,502.7,231.5z
	 M464.3,250.7v-38.1h-7.6l-11.3,6v8.6l10.6-5.7v29.2H464.3z M621.4,214.4c-2.7-1.7-6.1-2.6-9.9-2.6c-5.4,0-10,1.9-13.3,5.6
	c-3.3,3.7-5.1,8.7-5.1,14.6s1.7,10.9,5,14.3c3.3,3.4,8,5.2,13.8,5.2c4.7,0,8.7-1.3,11.6-3.7c2.9-2.4,4.4-5.6,4.4-9.4
	c0-7.6-6.3-13.1-15-13.1c-4.5,0-8.5,1.3-10.9,3.7l0,0h-0.1l0-0.1c0.7-6.6,4.2-10.2,10-10.2c3.7,0,6.4,1.6,7.7,4.6l7.6-2
	C626,218.5,624,216,621.4,214.4L621.4,214.4z M611.8,231.7c2.6,0,4.6,0.6,6,1.7c1.3,1.1,2,2.7,2,4.8s-0.7,3.6-2.1,4.7
	c-1.4,1.1-3.4,1.7-6,1.7s-4.9-0.6-6.6-1.7c-1.7-1.1-2.7-2.8-2.7-4.6C602.6,234.4,606.4,231.7,611.8,231.7z M35.3,407.2h9.9l14,27.4
	h0.1l14.1-27.4h9.9v39.2h-8.5v-25.7h-0.1L61,446.5h-3.5L44,420.7h-0.1v25.7h-8.6V407.2z M107.5,407.2h8.6V431c0,6.1,3.1,8.8,9.2,8.8
	s9.2-2.7,9.2-8.7v-23.8h8.6v24.2c0,10.5-6.4,15.9-17.8,15.9s-17.8-5.4-17.8-15.9L107.5,407.2L107.5,407.2z M172.9,431.8
	c1.2,5.7,4.5,8.2,10.6,8.2c5,0,7.8-1.6,7.8-4.4c0-2.7-2.1-4.1-10.8-6c-10.8-2.4-15.1-5.9-15.1-11.8c0-6.4,6.3-11.4,15.5-11.4
	c4.5,0,8.3,1.1,11.5,3.2c3.2,2.1,5.2,4.9,6.1,8.6l-8.3,2c-1.3-4.3-4.5-6.4-9.4-6.4c-4,0-6.9,1.7-6.9,4.1c0,2,1.9,3,10.6,4.9
	c10.5,2.3,15.3,6.2,15.3,12.8c0,7.1-6.4,11.7-16.5,11.7c-10.5,0-17.4-5-18.9-13.8L172.9,431.8L172.9,431.8z M221.7,407.2h8.6v39.2
	h-8.6V407.2z M273.2,406.4c4.8,0,8.8,1.2,12.1,3.7c3.4,2.4,5.5,5.7,6.4,9.9l-8.1,2c-1.4-5.2-5.3-8.1-10.5-8.1
	c-7.1,0-12.1,5.3-12.1,12.9s4.9,12.9,12.1,12.9c5.6,0,9.5-3.3,10.6-8.9l8.1,1.9c-1.6,8.9-9,14.5-18.7,14.5
	c-11.8,0.2-20.8-8.7-20.6-20.5C252.4,415.1,261.4,406.2,273.2,406.4L273.2,406.4z M530.1,406.4c4.8,0,8.8,1.2,12.1,3.7
	c3.4,2.4,5.5,5.7,6.4,9.9l-8.1,2c-1.4-5.2-5.3-8.1-10.5-8.1c-7.1,0-12.1,5.3-12.1,12.9s4.9,12.9,12.1,12.9c5.5,0,9.5-3.3,10.6-8.9
	l8.1,1.9c-1.6,8.9-9,14.5-18.7,14.5c-11.8,0.2-20.8-8.7-20.6-20.5C509.3,415.1,518.3,406.2,530.1,406.4L530.1,406.4z M589,406.4
	c11.8-0.2,20.8,8.7,20.6,20.5c0.2,11.7-8.9,20.6-20.6,20.5c-11.8,0.2-20.8-8.7-20.6-20.5C568.2,415.1,577.2,406.2,589,406.4
	L589,406.4z M589,413.9c-7.1,0-12.1,5.3-12.1,12.9s4.9,12.9,12.1,12.9c7.1,0,12.1-5.3,12.1-12.9S596.1,413.9,589,413.9z
	 M620.7,437.5h9.3v9h-9.3V437.5z M111.2,288h26.4c0.3,0,0.6,0.2,0.7,0.6l7.7,40.9c0.1,0.8,1.2,0.8,1.4,0l8-40.9
	c0.1-0.3,0.4-0.6,0.7-0.6h25.6c0.3,0,0.6,0.2,0.7,0.5l9.3,41.2c0.2,0.7,1.2,0.7,1.4,0l6.6-41.1c0.1-0.3,0.3-0.6,0.7-0.6H226
	c0.4,0,0.8,0.4,0.7,0.8l-17.8,81.9c-0.1,0.3-0.4,0.5-0.7,0.5h-28.1c-0.3,0-0.6-0.2-0.7-0.5l-10.1-45.5c-0.2-0.7-1.2-0.7-1.4,0
	l-8.8,45.4c-0.1,0.3-0.4,0.6-0.7,0.6H130c-0.3,0-0.6-0.2-0.7-0.5l-18.8-81.9C110.4,288.4,110.8,288,111.2,288L111.2,288z M233.5,288
	h65.7c0.4,0,0.7,0.3,0.7,0.7v21.2c0,0.4-0.3,0.7-0.7,0.7h-36.6c-0.4,0-0.7,0.3-0.7,0.7v8.2c0,0.4,0.3,0.7,0.7,0.7h32.3
	c0.4,0,0.7,0.3,0.7,0.7V337c0,0.4-0.3,0.7-0.7,0.7h-32.3c-0.4,0-0.7,0.3-0.7,0.7v9.6c0,0.4,0.3,0.7,0.7,0.7h37.3
	c0.4,0,0.7,0.3,0.7,0.7v21.2c0,0.4-0.3,0.7-0.7,0.7h-66.3c-0.4,0-0.7-0.3-0.7-0.7v-81.9C232.8,288.3,233.1,288,233.5,288L233.5,288z
	 M309,288h65.4c0.4,0,0.7,0.3,0.7,0.7v21.2c0,0.4-0.3,0.7-0.7,0.7H338c-0.4,0-0.7,0.3-0.7,0.7v8.2c0,0.4,0.3,0.7,0.7,0.7h33.5
	c0.4,0,0.7,0.3,0.7,0.7V337c0,0.4-0.3,0.7-0.7,0.7H338c-0.4,0-0.7,0.3-0.7,0.7v9.6c0,0.4,0.3,0.7,0.7,0.7h38.7
	c0.4,0,0.7,0.3,0.7,0.7v21.2c0,0.4-0.3,0.7-0.7,0.7H309c-0.4,0-0.7-0.3-0.7-0.7v-81.9C308.3,288.3,308.6,288,309,288L309,288z
	 M485.3,288h65.4c0.4,0,0.7,0.3,0.7,0.7v21.2c0,0.4-0.3,0.7-0.7,0.7h-36.3c-0.4,0-0.7,0.3-0.7,0.7v8.2c0,0.4,0.3,0.7,0.7,0.7h32.3
	c0.4,0,0.7,0.3,0.7,0.7V337c0,0.4-0.3,0.7-0.7,0.7h-32.3c-0.4,0-0.7,0.3-0.7,0.7v9.6c0,0.4,0.3,0.7,0.7,0.7h38.5
	c0.4,0,0.7,0.3,0.7,0.7v21.2c0,0.4-0.3,0.7-0.7,0.7h-67.5c-0.4,0-0.7-0.3-0.7-0.7v-81.9C484.6,288.3,484.9,288,485.3,288L485.3,288z
	 M560.7,288h65.4c0.4,0,0.7,0.3,0.7,0.7v21.2c0,0.4-0.3,0.7-0.7,0.7h-36.3c-0.4,0-0.7,0.3-0.7,0.7v8.2c0,0.4,0.3,0.7,0.7,0.7h33.5
	c0.4,0,0.7,0.3,0.7,0.7V337c0,0.4-0.3,0.7-0.7,0.7h-33.5c-0.4,0-0.7,0.3-0.7,0.7v9.6c0,0.4,0.3,0.7,0.7,0.7h37.4
	c0.4,0,0.7,0.3,0.7,0.7v21.2c0,0.4-0.3,0.7-0.7,0.7h-66.5c-0.4,0-0.7-0.3-0.7-0.7v-81.9C560,288.3,560.3,288,560.7,288L560.7,288z
	 M412.5,286.9h27.7c0.4,0,0.7,0.3,0.7,0.7v58.6c0,0.4,0.3,0.7,0.7,0.7h35.3c0.4,0,0.7,0.3,0.7,0.7v23c0,0.4-0.3,0.7-0.7,0.7h-64.3
	c-0.4,0-0.7-0.3-0.7-0.7v-83C411.8,287.2,412.1,286.9,412.5,286.9L412.5,286.9z M108.9,333.8c-1.1-3-2.7-5.5-4.8-7.5
	c-1.3-1.2-2.7-2.3-4.4-3.2c-1.7-0.9-3.6-1.7-5.6-2.3c-2-0.6-4.2-1.2-6.7-1.6s-5.9-0.9-10.3-1.4c-5.7-0.6-9.4-1.4-11-2.1
	c-1.6-0.8-2.3-1.8-2.3-3.2c0-1.6,0.7-2.8,2-3.6c1.3-0.8,3.1-1.3,5.5-1.3c3.2,0,5.7,0.6,7.6,1.9c1.6,1.1,3.9,2.9,5,5.2
	c0.2,0.5,0.8,0.7,1.3,0.5l22.3-7.9c0.6-0.2,0.9-0.8,0.6-1.4c-2.5-6-6.5-10.8-12-14.3c-6.6-4.2-15-6.3-25.2-6.3
	c-11.3,0-20.3,2.7-27.1,8s-10.2,12.5-10.2,21.4c0,3.7,0.5,6.9,1.6,9.7s2.7,5.3,4.9,7.4c1.2,1.2,2.6,2.2,4.3,3
	c1.6,0.9,3.6,1.7,5.8,2.4c2.2,0.7,4.5,1.2,7,1.7c2.5,0.5,6.1,1,10.6,1.5c5.6,0.6,9.1,0.9,10.6,1.6c1.5,0.7,2.2,1.7,2.2,3
	c0,1.6-0.7,2.8-2,3.7c-1.3,0.9-3.2,1.5-5.7,1.5c-3.8,0-9.5-0.5-11.9-2c-1.9-1.1-4.1-2.7-5.3-4.7c-0.2-0.3-0.5-0.4-0.9-0.3l-24.5,8.7
	c-0.4,0.1-0.6,0.6-0.4,0.9c2.5,5.8,6.6,10.4,12.4,13.7c7,4,18.8,6,30.2,6s20.9-2.6,27.6-7.8c6.8-5.2,10.2-12.3,10.2-21.4
	C110.5,340.1,110,336.8,108.9,333.8L108.9,333.8z M37.1,211.2h29.8v7.6H45.7v8.3h19.2v7.2H45.7v8.9h21.2v7.6H37.1V211.2z M95.5,236
	c1.2,5.7,4.5,8.3,10.7,8.3c5,0,7.9-1.6,7.9-4.5c0-2.7-2.1-4.1-10.9-6C92.4,231.4,88,227.9,88,222c0-6.4,6.3-11.5,15.6-11.5
	c4.5,0,8.3,1.1,11.6,3.2c3.2,2.1,5.2,5,6.1,8.6l-8.3,2c-1.3-4.3-4.5-6.5-9.4-6.5c-4.1,0-6.9,1.7-6.9,4.1c0,2,1.9,3,10.7,5
	c10.6,2.3,15.4,6.2,15.4,12.9c0,7.2-6.5,11.8-16.6,11.8c-10.6,0-17.5-5-19.1-13.9L95.5,236L95.5,236z M154.5,218.8h-14v-7.6h36.7
	v7.6h-14v31.9h-8.6V218.8L154.5,218.8z M183,241.7h9.3v9H183V241.7z"/>
</svg>
