<?xml version="1.0" encoding="UTF-8"?>
<svg version="1.1" xmlns="http://www.w3.org/2000/svg" width="512" height="512">
<path d="M0 0 C1.35031506 0.55119813 2.70388098 1.09459967 4.0625 1.625 C7 3 7 3 9 6 C9.62714704 9.55383324 9.72034997 11.91521262 7.6796875 14.98828125 C4.81526028 18.29585977 1.68273355 21.31228227 -1.4375 24.375 C-11.25726499 34.10728379 -18.88779656 45.90630672 -25.25 58.125 C-28.41708263 63.99443031 -31.22865859 66.56293762 -37.625 68.5 C-39.41623459 69.00154569 -41.20791835 69.50148941 -43 70 C-56.30246366 73.89668127 -65.5472412 82.09267695 -75.17028809 91.78933716 C-76.14064095 92.75622386 -77.11164522 93.72245719 -78.08323431 94.68810165 C-80.72323946 97.31569808 -83.35394642 99.95242756 -85.9830749 102.5909009 C-88.8311603 105.44581867 -91.68792037 108.29203483 -94.54353333 111.13941956 C-100.1261162 116.70870578 -105.7006107 122.2860196 -111.27218878 127.86631294 C-115.80483519 132.40575359 -120.34042449 136.9422344 -124.87809753 141.47665024 C-125.52564108 142.12373409 -126.17318464 142.77081794 -126.84035072 143.43751039 C-128.15615913 144.75235956 -129.47197424 146.06720202 -130.78779596 147.38203786 C-143.10921008 159.69490946 -155.42143425 172.01693744 -167.73050445 184.34214745 C-178.27038305 194.89541864 -188.81808865 205.44081325 -199.37158203 215.98046875 C-211.65012978 228.24292405 -223.92374711 240.51028037 -236.18965578 252.78537929 C-237.50039843 254.0970775 -238.8111473 255.40876948 -240.12190247 256.72045517 C-240.76667568 257.36569121 -241.4114489 258.01092725 -242.07576069 258.6757159 C-246.59846253 263.20099737 -251.12461413 267.72281029 -255.65214539 272.24325943 C-261.17932102 277.76197862 -266.70103267 283.28609791 -272.21603096 288.81698723 C-275.02481909 291.63360416 -277.83584914 294.4478731 -280.65355873 297.25556755 C-304.70459716 318.88640275 -304.70459716 318.88640275 -317.3125 347.3125 C-316.93568959 351.75886282 -315.90226622 353.63948122 -313 357 C-307.79711128 360.80699175 -302.19260477 360.84664518 -296 360 C-289.56986396 358.15461657 -284.31638828 355.47173265 -279.1875 351.1875 C-276.16295384 348.67344892 -275.15180347 348.02693287 -271.125 347.3125 C-268 348 -268 348 -266.0625 349.5625 C-264.35230589 353.48588648 -264.3286321 356.80686486 -265.5859375 360.9140625 C-272.34016573 376.46737706 -289.8604414 383.79978286 -304.40136719 390.23608398 C-312.25532344 393.80599661 -320.32457499 398.50236248 -325 406 C-325.83646114 408.71855719 -325.83646114 408.71855719 -326.125 411.6875 C-326.27324219 412.82445312 -326.42148437 413.96140625 -326.57421875 415.1328125 C-326.87864512 417.89778596 -327.17339584 420.66260017 -327.45703125 423.4296875 C-330.01639709 448.34454611 -338.11967069 465.97909706 -357 483 C-370.04951877 493.34075503 -383.18675621 498.30191047 -400 497 C-420.46614872 494.46656897 -437.9463631 481.19395484 -453 468 C-454.13115234 467.03707031 -454.13115234 467.03707031 -455.28515625 466.0546875 C-474.70979075 449.44913515 -491.81622035 428.43143009 -500 404 C-500.32097656 403.10410156 -500.64195312 402.20820313 -500.97265625 401.28515625 C-506.11729971 384.60694002 -504.01815584 365.86590541 -496.4375 350.375 C-482.85618506 327.14650417 -458.42733113 316.84638431 -434.06640625 308.65234375 C-433.12662682 308.3348114 -433.12662682 308.3348114 -432.16786194 308.01086426 C-429.01434086 306.94596689 -425.85822696 305.89454791 -422.69262695 304.86572266 C-399.13880357 296.99265829 -386.49147507 284.52394199 -375.57601929 262.65087891 C-366.75010283 245.00980826 -357.08365057 227.21596246 -342.5625 213.53515625 C-340.96797217 211.96853266 -339.63197747 210.31745434 -338.25 208.5625 C-331.44989265 200.51450061 -319.39335003 191.98085894 -308.66015625 190.7265625 C-301.6904501 190.45406271 -301.6904501 190.45406271 -298.3125 193.125 C-296.67062328 196.72149187 -296.95211848 198.22098837 -298 202 C-299.96875 204.38671875 -299.96875 204.38671875 -302.5 206.6875 C-317.42208687 220.88583373 -332.7874503 240.2419361 -333.375 261.6875 C-333.23346754 266.911894 -332.79700361 270.56337358 -330 275 C-327.45228579 277.14544354 -326.01488785 277.9725706 -322.6875 278.0625 C-316.08045018 275.45041054 -311.07370245 270.29400414 -306.25 265.22265625 C-304.30825169 263.30450558 -302.32603341 261.51780491 -300.265625 259.73046875 C-295.98450447 256.01518087 -291.86080833 252.15180028 -287.75 248.25 C-281.88579381 242.7065622 -275.98487201 237.2122257 -270.0234375 231.7734375 C-266.49048063 228.54256378 -262.99612198 225.27062256 -259.5 222 C-254.06193424 216.91339722 -248.59013217 211.8673251 -243.09375 206.84375 C-239.54022535 203.5863524 -236.02054571 200.29295488 -232.5 197 C-227.06188964 191.91344425 -221.59013288 186.86732575 -216.09375 181.84375 C-212.54022535 178.5863524 -209.02054571 175.29295488 -205.5 172 C-200.06188964 166.91344425 -194.59013288 161.86732575 -189.09375 156.84375 C-185.54022535 153.5863524 -182.02054571 150.29295488 -178.5 147 C-173.06188964 141.91344425 -167.59013288 136.86732575 -162.09375 131.84375 C-158.54022535 128.5863524 -155.02054571 125.29295488 -151.5 122 C-146.06188964 116.91344425 -140.59013288 111.86732575 -135.09375 106.84375 C-131.54022535 103.5863524 -128.02054571 100.29295488 -124.5 97 C-119.06591691 91.91721117 -113.59873826 86.87428583 -108.10546875 81.85546875 C-103.83012135 77.93674857 -99.60323909 73.96566757 -95.37744141 69.99365234 C-91.94684451 66.77852507 -88.46379507 63.66442877 -84.875 60.625 C-79.46982172 55.88272095 -75.27624725 50.16417153 -74.7890625 42.8203125 C-74.67992831 40.36219468 -74.57573926 37.9038522 -74.4765625 35.4453125 C-73.956867 31.68816964 -73.42667111 29.90113227 -71 27 C-68.55487735 25.55028823 -66.25982105 24.34965306 -63.6875 23.1875 C-62.23682842 22.49522373 -60.7876335 21.79984561 -59.33984375 21.1015625 C-58.6113623 20.75254883 -57.88288086 20.40353516 -57.13232422 20.04394531 C-46.99988793 15.08329755 -37.87189434 8.958852 -29 2 C-27.4829036 0.82847806 -25.96255005 -0.33885079 -24.4375 -1.5 C-23.53837891 -2.19609375 -23.53837891 -2.19609375 -22.62109375 -2.90625 C-14.81780377 -8.17112035 -7.34972001 -3.59391595 0 0 Z M-441 370 C-443.35242347 373.20785018 -443.4684209 376.09649252 -443 380 C-439.57017601 386.19692827 -434.41504007 390.90858946 -429.44921875 395.88671875 C-428.50749105 396.83488463 -427.5659093 397.78319548 -426.62446594 398.73164368 C-424.65690628 400.711129 -422.6853073 402.68648778 -420.71118164 404.65942383 C-418.1927068 407.1776952 -415.68829082 409.70946297 -413.18718243 412.24496746 C-411.24913359 414.20533611 -409.30197807 416.15646346 -407.35221291 418.10517311 C-405.97751248 419.48335339 -404.61190297 420.87058259 -403.24650574 422.25798035 C-398.77573982 426.69628454 -395.13626059 430.2713605 -389 432 C-384.75937176 431.42499956 -382.69556226 430.67725799 -379.625 427.6875 C-377.91181382 424.85415362 -377.07868226 423.30465481 -377 420 C-379.167715 412.51048089 -384.56914345 407.88443526 -389.99609375 402.54296875 C-390.99186515 401.54958528 -391.98689427 400.55545724 -392.98121643 399.56062317 C-395.05890684 397.48604832 -397.14310226 395.41832681 -399.23266602 393.35571289 C-401.90720526 390.71524031 -404.5683004 388.06170378 -407.2250967 385.40339184 C-409.27572658 383.35330625 -411.33153064 381.30847745 -413.38911629 379.26537514 C-414.37227089 378.28857006 -415.3542319 377.31056208 -416.33495903 376.33131981 C-417.7058468 374.96477947 -419.08409485 373.6056349 -420.46264648 372.24682617 C-421.24413559 371.47296066 -422.02562469 370.69909515 -422.83079529 369.90177917 C-425.79859869 367.29985476 -427.96465845 366.13504455 -431.875 365.625 C-435.87153796 366.10458455 -437.90459308 367.46739433 -441 370 Z " fill="#000000" transform="translate(503,10)"/>
</svg>
