<?xml version="1.0" encoding="UTF-8"?>
<svg version="1.1" xmlns="http://www.w3.org/2000/svg" width="90" height="90">
<path d="M0 0 C2.10353495 -0.0810206 4.20795952 -0.13919907 6.3125 -0.1875 C7.48425781 -0.22230469 8.65601563 -0.25710937 9.86328125 -0.29296875 C13 0 13 0 14.78125 1.1015625 C16.50625598 3.78859105 17.29501446 6.50206107 18.1875 9.5625 C18.53167969 10.71878906 18.87585938 11.87507813 19.23046875 13.06640625 C20 16 20 16 20 18 C40.13 18 60.26 18 81 18 C81 23.28284875 80.86263807 26.38432717 79.5390625 31.23046875 C79.07886719 32.92913086 79.07886719 32.92913086 78.609375 34.66210938 C78.28453125 35.82548828 77.9596875 36.98886719 77.625 38.1875 C77.14933594 39.9499707 77.14933594 39.9499707 76.6640625 41.74804688 C73.26193986 54.15870676 73.26193986 54.15870676 69 57 C67.07167053 57.26742554 67.07167053 57.26742554 64.86743164 57.29052734 C64.03969742 57.30328705 63.2119632 57.31604675 62.35914612 57.32919312 C61.02314613 57.33253159 61.02314613 57.33253159 59.66015625 57.3359375 C58.7416539 57.3425943 57.82315155 57.3492511 56.8768158 57.35610962 C54.934255 57.36623448 52.99165943 57.37092669 51.04907227 57.37060547 C48.07705408 57.37497858 45.106521 57.41129926 42.13476562 57.44921875 C40.24740091 57.45508694 38.36002915 57.45905632 36.47265625 57.4609375 C35.58401382 57.47530853 34.6953714 57.48967957 33.77980042 57.50448608 C27.62138226 57.45887895 27.62138226 57.45887895 24.4831543 55.14135742 C22.63690844 52.47577348 21.72180302 50.03784172 20.75 46.9375 C20.5538208 46.31770264 20.3576416 45.69790527 20.15551758 45.05932617 C19.42080827 42.71095408 18.71069141 40.35575455 18 38 C17.50282471 36.37723145 17.50282471 36.37723145 16.99560547 34.72167969 C15.88384196 31.08796582 14.78342535 27.45102044 13.6875 23.8125 C13.3255957 22.61810303 12.96369141 21.42370605 12.59082031 20.19311523 C12.2553418 19.06333252 11.91986328 17.9335498 11.57421875 16.76953125 C11.11921997 15.24743042 11.11921997 15.24743042 10.6550293 13.69458008 C10 11 10 11 10 7 C6.7 6.67 3.4 6.34 0 6 C-1 2 -1 2 0 0 Z " fill="#FFFFFF" transform="translate(3,6)"/>
<path d="M0 0 C0.70125 0.00515625 1.4025 0.0103125 2.125 0.015625 C2.82625 0.01046875 3.5275 0.0053125 4.25 0 C6.125 0.265625 6.125 0.265625 8.125 2.265625 C8.390625 4.140625 8.390625 4.140625 8.375 6.265625 C8.38015625 6.966875 8.3853125 7.668125 8.390625 8.390625 C8.125 10.265625 8.125 10.265625 6.125 12.265625 C4.25 12.53125 4.25 12.53125 2.125 12.515625 C1.42375 12.52078125 0.7225 12.5259375 0 12.53125 C-1.875 12.265625 -1.875 12.265625 -3.875 10.265625 C-4.140625 8.390625 -4.140625 8.390625 -4.125 6.265625 C-4.13015625 5.564375 -4.1353125 4.863125 -4.140625 4.140625 C-3.75603481 1.4258707 -2.7147543 0.38459019 0 0 Z " fill="#FFFFFF" transform="translate(63.875,68.734375)"/>
<path d="M0 0 C0.70125 0.00515625 1.4025 0.0103125 2.125 0.015625 C2.82625 0.01046875 3.5275 0.0053125 4.25 0 C6.125 0.265625 6.125 0.265625 8.125 2.265625 C8.390625 4.140625 8.390625 4.140625 8.375 6.265625 C8.38015625 6.966875 8.3853125 7.668125 8.390625 8.390625 C8.125 10.265625 8.125 10.265625 6.125 12.265625 C4.25 12.53125 4.25 12.53125 2.125 12.515625 C1.42375 12.52078125 0.7225 12.5259375 0 12.53125 C-1.875 12.265625 -1.875 12.265625 -3.875 10.265625 C-4.140625 8.390625 -4.140625 8.390625 -4.125 6.265625 C-4.13015625 5.564375 -4.1353125 4.863125 -4.140625 4.140625 C-3.75603481 1.4258707 -2.7147543 0.38459019 0 0 Z " fill="#FFFFFF" transform="translate(33.875,68.734375)"/>
</svg>
