<?xml version="1.0" encoding="UTF-8"?>
<svg version="1.1" xmlns="http://www.w3.org/2000/svg" width="512" height="512">
<path d="M0 0 C0.66644531 0.14888672 1.33289063 0.29777344 2.01953125 0.45117188 C20.8490413 4.8569116 39.02263545 13.79434571 54 26 C54.56928223 26.45938965 55.13856445 26.9187793 55.72509766 27.39208984 C85.69423038 51.7342295 104.77738611 84.8991652 109.6171875 123.41015625 C111.20813893 139.63249806 110.51341727 156.09018594 107 172 C106.83902832 172.73734375 106.67805664 173.4746875 106.51220703 174.234375 C102.74607721 190.7894279 96.0130947 207.22937082 86 221 C85.25105469 222.03125 84.50210937 223.0625 83.73046875 224.125 C59.74134458 256.46880814 26.70053446 277.05425828 -13.23095703 283.5234375 C-19.91563023 284.36865593 -26.64615867 284.24470198 -33.375 284.25 C-34.14044128 284.25067474 -34.90588257 284.25134949 -35.69451904 284.25204468 C-46.74808436 284.23653019 -57.26992455 283.90727833 -68 281 C-68.64952637 280.82839355 -69.29905273 280.65678711 -69.96826172 280.47998047 C-108.71610404 270.03961554 -140.47530703 245.22934322 -160.57910156 210.58251953 C-179.66061733 175.90137282 -182.92464871 135.5517099 -172.17773438 97.7019043 C-166.48459537 78.9756607 -156.81321594 61.7767343 -144 47 C-143.29230469 46.17113281 -142.58460938 45.34226562 -141.85546875 44.48828125 C-123.3425223 23.31673304 -99.10746814 8.40561431 -72 1 C-70.85917969 0.68546875 -69.71835938 0.3709375 -68.54296875 0.046875 C-46.0220476 -5.40302763 -22.5195362 -5.0871164 0 0 Z M-78.875 84.3125 C-80.890235 89.1266725 -81.41909042 92.57016211 -79.9375 97.625 C-77.23374401 102.33476849 -74.27354066 105.24215311 -69 107 C-66.7781069 107.10478899 -64.55318527 107.14867144 -62.32885742 107.16113281 C-61.31853203 107.16858017 -61.31853203 107.16858017 -60.28779602 107.17617798 C-58.06034318 107.19077789 -55.83296158 107.19759834 -53.60546875 107.203125 C-52.05471292 107.20887874 -50.5039571 107.21463644 -48.95320129 107.22039795 C-45.70081247 107.2309021 -42.44844832 107.23674843 -39.19604492 107.24023438 C-35.03653691 107.24571449 -30.877357 107.26973442 -26.71795177 107.29820633 C-23.51368774 107.31686789 -20.30950215 107.3220402 -17.10518837 107.32357025 C-15.57224041 107.32658994 -14.0392936 107.33459538 -12.50639915 107.34775543 C-10.35712405 107.36488838 -8.20864263 107.36291844 -6.05932617 107.35644531 C-4.22757088 107.36191376 -4.22757088 107.36191376 -2.35881042 107.36749268 C2.90057128 106.79205554 6.06531222 104.91391694 9.8125 101.25 C12.31194649 97.53653665 13 95.46312237 13 91 C11.38225583 85.78726879 9.15083425 82.52820911 5 79 C1.53863158 77.84621053 -1.18635859 77.85173307 -4.83886719 77.82299805 C-5.5303183 77.81642685 -6.22176941 77.80985565 -6.93417358 77.80308533 C-9.22174188 77.78338102 -11.50924457 77.77169531 -13.796875 77.76171875 C-14.57973122 77.75764322 -15.36258743 77.7535677 -16.16916656 77.74936867 C-20.31394689 77.72851873 -24.45869422 77.71421318 -28.60351562 77.70483398 C-32.87511737 77.69378027 -37.14619666 77.65938975 -41.41761398 77.61966228 C-44.71027566 77.59345973 -48.00281361 77.58513888 -51.29557037 77.58155251 C-52.86957573 77.57669481 -54.44357587 77.56510409 -56.01747894 77.54651451 C-58.22658631 77.52204721 -60.43435204 77.52310115 -62.64355469 77.5300293 C-63.89803406 77.52416306 -65.15251343 77.51829681 -66.44500732 77.51225281 C-71.6251032 78.22296516 -75.51378242 80.16699832 -78.875 84.3125 Z " fill="#000000" transform="translate(290,228)"/>
<path d="M0 0 C0.84972885 -0.00058411 1.6994577 -0.00116821 2.57493591 -0.00177002 C5.35637667 0.00099507 8.13671748 0.03201132 10.91796875 0.06347656 C12.8570904 0.07094458 14.79621964 0.07663486 16.73535156 0.08062744 C21.81867613 0.09583961 26.90153755 0.13508313 31.98468018 0.17944336 C37.17982723 0.22049164 42.37504973 0.23865882 47.5703125 0.25878906 C57.74890048 0.30158184 67.92714598 0.36977934 78.10546875 0.45410156 C78.2920675 13.78147325 78.43359815 27.10852657 78.51996613 40.43694592 C78.56145039 46.62811609 78.61758211 52.8183828 78.70898438 59.0090332 C78.79687401 65.00030001 78.84394319 70.99070627 78.86448669 76.98256874 C78.87909776 79.25124953 78.90762189 81.5198913 78.9513092 83.78819847 C79.20898247 97.74111305 77.80859578 108.8739915 72.10876465 121.69013977 C64.21933388 139.49718567 62.9748995 159.84288706 63.0625 179.01269531 C63.06560181 180.30784058 63.06870361 181.60298584 63.07189941 182.93737793 C63.07994528 186.10964224 63.09121735 189.28186008 63.10546875 192.45410156 C53.69111249 192.5236922 44.27684513 192.57695876 34.86228752 192.60953808 C30.49045585 192.62517659 26.11880051 192.64638157 21.74707031 192.68041992 C17.52603554 192.71307831 13.3051701 192.73096823 9.08401871 192.73873329 C7.47570252 192.74426519 5.86739533 192.75506771 4.25915146 192.77129173 C2.00183016 192.79315263 -0.25479646 192.79606495 -2.51220703 192.79467773 C-3.79572052 192.80133957 -5.07923401 192.8080014 -6.40164185 192.81486511 C-11.5310847 192.28506992 -14.76155963 190.7095566 -18.20703125 186.89160156 C-20.98471985 182.87938469 -21.02507713 180.62110377 -21.04170227 175.72418213 C-21.04537896 175.02433567 -21.04905565 174.32448921 -21.05284375 173.60343528 C-21.06390053 171.2466839 -21.0677278 168.88997658 -21.0715332 166.53320312 C-21.07779637 164.84808206 -21.08444304 163.16296239 -21.09144592 161.47784424 C-21.10886977 156.89093405 -21.11941156 152.30403429 -21.12765145 147.71709919 C-21.13279891 144.85228862 -21.13887477 141.98748131 -21.14516258 139.12267303 C-21.16421894 130.16215666 -21.17844886 121.20164855 -21.18677455 112.24111581 C-21.19654816 101.89260658 -21.22286905 91.54431118 -21.26327544 81.19587731 C-21.29342275 73.20090306 -21.30824213 65.20599015 -21.31155556 57.21096015 C-21.31390773 52.43422706 -21.32288963 47.6577223 -21.34801674 42.88105011 C-21.37127814 38.386325 -21.37553853 33.89197884 -21.36525536 29.39720917 C-21.3647594 27.74845622 -21.37109734 26.09968475 -21.3848114 24.45098877 C-21.40250549 22.19752352 -21.39543779 19.94542189 -21.38227844 17.69195557 C-21.3846668 16.43169682 -21.38705515 15.17143806 -21.38951588 13.87298965 C-20.70566089 9.14956285 -18.82351334 5.97895873 -15.06660461 3.00912857 C-9.92770762 0.52624856 -5.67332205 -0.1039674 0 0 Z " fill="#000000" transform="translate(20.89453125,191.5458984375)"/>
<path d="M0 0 C11.20515406 -0.09282899 22.41021608 -0.16383055 33.61567688 -0.20724869 C38.81928119 -0.22809109 44.02262171 -0.25634765 49.22607422 -0.30175781 C54.25112488 -0.34533483 59.27592237 -0.36916227 64.30114746 -0.37950897 C66.21484358 -0.38687907 68.12852641 -0.40127115 70.04211426 -0.42292023 C72.73019968 -0.45211199 75.4172494 -0.45594945 78.10546875 -0.45410156 C78.89022079 -0.46848267 79.67497284 -0.48286377 80.48350525 -0.49768066 C86.07695856 -0.45628727 90.40343366 0.73046071 95 4 C99.78334322 9.02777525 99.57192844 13.92929078 99.51757812 20.5 C99.5245874 21.54462402 99.53159668 22.58924805 99.53881836 23.66552734 C99.55639022 27.11062381 99.54477782 30.55489551 99.53125 34 C99.53394513 36.3984391 99.53782772 38.79687714 99.54284668 41.1953125 C99.54874066 46.21885595 99.54018159 51.24211467 99.52148438 56.265625 C99.49869537 62.70189072 99.51181892 69.13748922 99.53577423 75.57373047 C99.55023461 80.52544168 99.545625 85.47699495 99.53526306 90.42871094 C99.53259647 92.80175862 99.53586314 95.17482068 99.54518127 97.54785156 C99.55535031 100.86562028 99.53983934 104.18231145 99.51757812 107.5 C99.52567505 108.47888184 99.53377197 109.45776367 99.54211426 110.46630859 C99.47162114 116.14301896 98.87156346 119.5431367 95 124 C87.41336525 129.68879434 78.2040006 128.50509495 69.15625 128.390625 C67.41891127 128.38315543 65.68156407 128.37746588 63.94421387 128.37347412 C59.39351738 128.35827404 54.84333962 128.31904155 50.29284668 128.2746582 C45.64061498 128.23358338 40.98829865 128.21543714 36.3359375 128.1953125 C27.22373167 128.15254118 18.11190914 128.0843589 9 128 C1.21180011 111.59185996 -1.27179663 97.8306712 -0.87890625 79.78515625 C-0.86206095 77.46392827 -0.84927792 75.14266768 -0.84031677 72.82139587 C-0.80641823 66.79555425 -0.71842863 60.77175452 -0.61798096 54.7467041 C-0.52489191 48.56514082 -0.48459342 42.38323829 -0.43945312 36.20117188 C-0.34375458 24.13323136 -0.19073537 12.06678729 0 0 Z " fill="#000000" transform="translate(413,192)"/>
<path d="M0 0 C0.86862167 -0.0049649 1.73724335 -0.00992981 2.63218689 -0.01504517 C5.50894968 -0.02966315 8.38565732 -0.03646835 11.26245117 -0.04199219 C13.26161195 -0.04774413 15.26077272 -0.05350186 17.25993347 -0.05926514 C21.45389056 -0.06977422 25.64782847 -0.07561743 29.84179688 -0.07910156 C35.21195554 -0.08458474 40.58186047 -0.10860945 45.95193958 -0.13707352 C50.08266435 -0.15571129 54.21332815 -0.16090612 58.34409142 -0.16243744 C60.32360915 -0.16546214 62.30312586 -0.1734845 64.28260231 -0.18662262 C67.05448242 -0.20370608 69.82574463 -0.20179718 72.59765625 -0.1953125 C73.41293793 -0.20452728 74.2282196 -0.21374207 75.06820679 -0.22323608 C79.94694819 -0.1875412 83.25772039 0.48138205 87.49291992 3.16113281 C90.84430684 6.87483182 92.62136263 9.26126804 92.60644531 14.24365234 C92.60633202 15.50473312 92.60633202 15.50473312 92.60621643 16.79129028 C92.60105515 17.69966644 92.59589386 18.6080426 92.59057617 19.54394531 C92.58916122 20.4733493 92.58774628 21.4027533 92.58628845 22.36032104 C92.58068045 25.33562406 92.5681266 28.31085246 92.55541992 31.28613281 C92.55040595 33.30045464 92.54584287 35.31477765 92.54174805 37.32910156 C92.53070842 42.27314083 92.51343841 47.21712416 92.49291992 52.16113281 C91.81003906 52.28117676 91.1271582 52.4012207 90.42358398 52.52490234 C49.06049909 59.88988714 12.90999793 74.10316954 -16.46801758 105.21191406 C-18.50708008 107.16113281 -18.50708008 107.16113281 -20.50708008 107.16113281 C-20.57661013 94.87833189 -20.62990675 82.59557785 -20.66251659 70.31262016 C-20.67816818 64.60905884 -20.69939747 58.90563223 -20.73339844 53.20214844 C-20.76600956 47.69731447 -20.78393691 42.19261004 -20.79171181 36.68768692 C-20.79725213 34.58814581 -20.80807102 32.48861175 -20.82427025 30.38912582 C-20.84606755 27.44692448 -20.849046 24.50525746 -20.84765625 21.56298828 C-20.85844208 20.69623978 -20.86922791 19.82949127 -20.88034058 18.93647766 C-20.85121376 13.23263599 -20.00243039 8.89692053 -16.00708008 4.51660156 C-10.6041995 0.30967111 -6.64699276 0.00904652 0 0 Z " fill="#000000" transform="translate(148.507080078125,143.8388671875)"/>
<path d="M0 0 C0.86599319 -0.00700928 1.73198639 -0.01401855 2.6242218 -0.02124023 C5.46994665 -0.03875956 8.31466647 -0.02721811 11.16040039 -0.01367188 C13.14905487 -0.01636878 15.13770805 -0.02025285 17.12635803 -0.02526855 C21.28814282 -0.03115561 25.44958345 -0.02262704 29.61132812 -0.00390625 C34.93201867 0.01886781 40.25190137 0.00576479 45.57256222 -0.01819611 C49.67767868 -0.03268816 53.78260539 -0.02803221 57.88772774 -0.01768494 C59.8488328 -0.0150263 61.80995537 -0.01825689 63.77103996 -0.02760315 C66.51839329 -0.03782329 69.26446058 -0.02219118 72.01171875 0 C72.8135257 -0.00809692 73.61533264 -0.01619385 74.44143677 -0.02453613 C79.98641628 0.05795817 84.6402119 1.01239412 89.07055664 4.51757812 C93.34175805 9.83533011 93.63465785 15.57181013 93.5246582 22.14648438 C93.52524231 23.07424179 93.52582642 24.00199921 93.52642822 24.95787048 C93.52366003 27.9989981 93.49262796 31.03912351 93.46118164 34.08007812 C93.45371475 36.19856226 93.44802394 38.31705334 93.44403076 40.43554688 C93.42880977 45.99232285 93.38955826 51.54867594 93.34521484 57.10528564 C93.30418589 62.78302288 93.28600347 68.4608289 93.26586914 74.13867188 C93.22306072 85.26515903 93.15485217 96.39133332 93.07055664 107.51757812 C89.1843056 105.72858736 86.71252402 103.2252622 83.82055664 100.14257812 C55.83521128 71.46725448 18.5812102 59.04486386 -19.92944336 52.51757812 C-20.02856025 46.64604582 -20.10102947 40.77500399 -20.14916992 34.90283203 C-20.16924505 32.90665195 -20.19651125 30.91053038 -20.23120117 28.91455078 C-20.27989993 26.03989192 -20.30245322 23.16601273 -20.32006836 20.29101562 C-20.3407135 19.40328461 -20.36135864 18.51555359 -20.38262939 17.60092163 C-20.38461048 12.09013135 -19.80081859 8.75164998 -15.92944336 4.51757812 C-10.45930432 0.74562869 -6.56538586 -0.06613258 0 0 Z " fill="#000000" transform="translate(290.929443359375,143.482421875)"/>
<path d="M0 0 C3.17900895 3.10147215 5.16162927 6.28090698 6.5625 10.5 C6.5625 11.82 6.5625 13.14 6.5625 14.5 C7.68221191 14.47905273 8.80192383 14.45810547 9.95556641 14.43652344 C14.12633377 14.36389574 18.29704568 14.31811789 22.46826172 14.28027344 C24.27044081 14.26020967 26.07255521 14.23295187 27.87451172 14.19824219 C30.47119136 14.14949171 33.06700729 14.12697918 35.6640625 14.109375 C36.86441635 14.07840729 36.86441635 14.07840729 38.08901978 14.04681396 C43.39634348 14.04470507 46.32355559 15.02524125 50.5625 18.5 C53.45204497 21.74494354 54.80954759 25.23177781 55 29.5625 C54.41044906 34.86845849 53.08894278 37.97355722 49.3125 41.75 C37.10403305 49.51902442 18.98836771 45.5 6.5625 45.5 C6.5625 83.78 6.5625 122.06 6.5625 161.5 C-3.6675 161.5 -13.8975 161.5 -24.4375 161.5 C-24.4375 123.22 -24.4375 84.94 -24.4375 45.5 C-35.6575 45.5 -46.8775 45.5 -58.4375 45.5 C-65.92338837 43.36117475 -68.28463531 41.72929703 -72.4375 35.5 C-72.73828125 32.7578125 -72.73828125 32.7578125 -72.75 29.625 C-72.76675781 28.59632812 -72.78351563 27.56765625 -72.80078125 26.5078125 C-72.37117447 22.95085312 -71.69476044 21.28594669 -69.4375 18.5 C-63.93899488 14.68125219 -60.04974646 13.93778089 -53.44140625 14.109375 C-52.60786118 14.11503479 -51.7743161 14.12069458 -50.91551208 14.12652588 C-48.27640168 14.14875805 -45.6386938 14.19892695 -43 14.25 C-41.20119161 14.27008213 -39.40236174 14.28832989 -37.60351562 14.3046875 C-33.21431067 14.34857929 -28.82614239 14.41751269 -24.4375 14.5 C-24.49357422 13.11361328 -24.49357422 13.11361328 -24.55078125 11.69921875 C-24.38121837 6.91052924 -21.91803319 4.21741851 -18.875 0.6875 C-13.97113957 -3.36351514 -5.39725477 -2.35516572 0 0 Z " fill="#000000" transform="translate(72.4375,1.5)"/>
<path d="M0 0 C10.23 0 20.46 0 31 0 C30.79987305 2.58682617 30.59974609 5.17365234 30.39355469 7.83886719 C29.53029706 19.7980546 29.03446903 31.76371989 28.75 43.75 C28.72465431 44.81765594 28.69930862 45.88531189 28.67319489 46.98532104 C27.90785658 82.25516092 27.90785658 82.25516092 44.66113281 112.0199585 C53.35084948 120.96492499 63.47272671 128.6870117 73.97555542 135.35412598 C77.23932734 138.00757348 78.81487066 140.76080094 79.43359375 144.90234375 C79.44150672 151.05071801 79.4465054 155.31314296 75 160 C71.33368821 162.5990635 68.67493905 163.47428036 64.1875 163.5625 C62.72376953 163.62630859 62.72376953 163.62630859 61.23046875 163.69140625 C53.33605094 162.00179083 47.26307419 154.53894628 41.78125 148.9765625 C41.03790405 148.23038666 40.29455811 147.48421082 39.52868652 146.71542358 C37.18100738 144.35664716 34.84042117 141.99097583 32.5 139.625 C30.89890324 138.01385994 29.29734507 136.40317829 27.6953125 134.79296875 C23.79152656 130.86726129 19.89352271 126.93588537 16 123 C10.88325771 127.27488247 6.1286398 131.76199124 1.45703125 136.515625 C0.03984539 137.94544319 -1.37747627 139.3751268 -2.79492188 140.8046875 C-5.00217449 143.03684599 -7.20778099 145.27058608 -9.41088867 147.50683594 C-11.55470839 149.68081017 -13.70466638 151.84856195 -15.85546875 154.015625 C-16.84150337 155.02184906 -16.84150337 155.02184906 -17.84745789 156.04840088 C-18.46522598 156.66954773 -19.08299408 157.29069458 -19.71948242 157.93066406 C-20.2579631 158.47660217 -20.79644379 159.02254028 -21.35124207 159.58502197 C-25.70418478 163.32075428 -29.75226216 163.42395777 -35.3046875 163.3203125 C-40.06741463 162.75430725 -42.73943406 160.4344371 -45.8125 156.9375 C-48.27696408 152.91653229 -48.6766461 148.59958242 -48 144 C-46.104206 138.31415595 -42.7575511 136.17547032 -37.97781372 133.01202393 C-22.21749436 122.44349544 -3.7868318 108.17744114 0.29406738 88.6003418 C2.72625546 73.96791679 2.59707888 59.03493285 2.25 44.25 C2.22449318 43.16322968 2.19898636 42.07645935 2.1727066 40.95675659 C1.81564287 27.27451392 1.04348582 13.64597162 0 0 Z " fill="#000000" transform="translate(433,349)"/>
<path d="M0 0 C4.84460635 2.33258824 7.52487205 5.24013856 10 10 C10.06353759 11.99899049 10.07237596 14.00131 10 16 C11.11971191 15.97905273 12.23942383 15.95810547 13.39306641 15.93652344 C17.56383377 15.86389574 21.73454568 15.81811789 25.90576172 15.78027344 C27.70794081 15.76020967 29.51005521 15.73295187 31.31201172 15.69824219 C33.90869136 15.64949171 36.50450729 15.62697918 39.1015625 15.609375 C40.30191635 15.57840729 40.30191635 15.57840729 41.52651978 15.54681396 C47.74771284 15.54434193 51.07791149 17.48095818 55.8125 21.5625 C58.79964497 25.17851759 58.33392453 29.83615492 58.26953125 34.2734375 C57.87827664 38.23134646 56.76982524 40.16092913 54 43 C48.52876359 46.59881118 43.80100925 47.57007181 37.34375 47.390625 C36.64411133 47.38659668 35.94447266 47.38256836 35.22363281 47.37841797 C32.64881578 47.35773446 30.07437717 47.30189166 27.5 47.25 C21.725 47.1675 15.95 47.085 10 47 C10 69.44 10 91.88 10 115 C-0.23 115 -10.46 115 -21 115 C-21 92.56 -21 70.12 -21 47 C-32.2034694 47.11833685 -32.2034694 47.11833685 -43.40649414 47.27026367 C-44.82437457 47.27903602 -46.24226264 47.28667818 -47.66015625 47.29296875 C-48.38005737 47.30831665 -49.0999585 47.32366455 -49.8416748 47.33947754 C-55.49266008 47.34236413 -60.32284042 46.30499838 -64.7421875 42.5 C-68.49133608 37.53561015 -69.51015567 34.22389919 -69 28 C-67.29768895 22.50338119 -65.17914528 19.69527773 -60.04698181 16.85050964 C-56.47910552 15.36807674 -53.03475288 15.50758867 -49.22265625 15.609375 C-48.41130722 15.61503479 -47.59995819 15.62069458 -46.76402283 15.62652588 C-44.1962245 15.6487508 -41.62986985 15.69891765 -39.0625 15.75 C-37.31186924 15.7700831 -35.56121641 15.78833069 -33.81054688 15.8046875 C-29.53981622 15.84856956 -25.27015207 15.91749725 -21 16 C-20.88317871 15.38439209 -20.76635742 14.76878418 -20.64599609 14.13452148 C-20.48180176 13.32571533 -20.31760742 12.51690918 -20.1484375 11.68359375 C-19.99036621 10.88236084 -19.83229492 10.08112793 -19.66943359 9.25561523 C-18.46505522 5.19753653 -15.6767467 2.99688932 -12.140625 0.89453125 C-8.20011509 -0.75214169 -4.18411761 -0.52963514 0 0 Z " fill="#000000" transform="translate(454,48)"/>
<path d="M0 0 C10.23 0 20.46 0 31 0 C30.70222656 4.45371094 30.40445313 8.90742188 30.09765625 13.49609375 C30.04841689 25.1123929 32.1445235 32.65750251 40.39295578 41.13542557 C44.41183937 45.11105912 48.55326285 48.91244403 52.81237793 52.62878418 C56.08469433 55.51568841 59.25552465 58.51329947 62.44278812 61.4933157 C64.91878086 63.80446731 67.40803458 66.08942625 69.93809509 68.34205627 C71.28442772 69.54764442 71.28442772 69.54764442 72.65795898 70.77758789 C73.44992172 71.47541885 74.24188446 72.17324982 75.05784607 72.89222717 C78.6777874 76.8208622 79.40958793 80.71539445 79.25 86.01171875 C78.68042138 90.54164871 76.76184686 93.31247966 73.4375 96.3125 C69.94236964 98.73220563 67.97980736 99.20270992 63.75 99.3125 C62.81671875 99.34988281 61.8834375 99.38726563 60.921875 99.42578125 C53.62198263 98.36202688 48.47419194 91.73684615 43.5390625 86.734375 C42.74849457 85.94097717 41.95792664 85.14757935 41.1434021 84.33013916 C38.63251324 81.80810239 36.12868876 79.27918261 33.625 76.75 C31.91843112 75.03339438 30.21140478 73.31724341 28.50390625 71.6015625 C24.33062523 67.4062926 20.16311432 63.20535756 16 59 C10.97743214 63.20051004 6.29685769 67.59206221 1.7109375 72.26171875 C0.34388309 73.64140792 -1.02330844 75.02096124 -2.390625 76.40039062 C-4.51659511 78.55123597 -6.64091482 80.70366383 -8.76269531 82.85864258 C-10.82957441 84.95574895 -12.90265068 87.04657036 -14.9765625 89.13671875 C-15.60688385 89.78049973 -16.2372052 90.4242807 -16.8866272 91.08757019 C-24.36281167 98.60601897 -24.36281167 98.60601897 -29.90234375 99.43359375 C-36.05071801 99.44150672 -40.31314296 99.4465054 -45 95 C-47.5990635 91.33368821 -48.47428036 88.67493905 -48.5625 84.1875 C-48.60503906 83.21167969 -48.64757813 82.23585938 -48.69140625 81.23046875 C-46.86114919 72.67892869 -38.73136716 66.80116999 -32.48046875 61.26953125 C-9.24601961 42.25126217 -9.24601961 42.25126217 2.30371094 16.06884766 C1.98832113 10.66699908 0.92124409 5.33204915 0 0 Z " fill="#000000" transform="translate(48,413)"/>
</svg>
