<?xml version="1.0" encoding="UTF-8"?>
<svg version="1.1" xmlns="http://www.w3.org/2000/svg" width="512" height="512">
<path d="M0 0 C8.13742066 5.46494336 13.53048545 11.71158116 16.1015625 21.26953125 C17.19592151 34.03281137 16.12068676 45.19613793 7.71484375 55.4375 C7.18246094 56.04207031 6.65007812 56.64664063 6.1015625 57.26953125 C5.60011719 57.86378906 5.09867187 58.45804687 4.58203125 59.0703125 C-4.91882927 69.49583098 -17.49481597 73.36333831 -30.97387695 75.61645508 C-34.46785013 76.8020923 -35.8227577 80.52766025 -37.5859375 83.58203125 C-44.82697838 95.60721193 -53.22077461 106.12835185 -62.8984375 116.26953125 C-64.06052734 117.51089844 -64.06052734 117.51089844 -65.24609375 118.77734375 C-74.5067482 128.41365085 -86.13890238 136.8571469 -99.4609375 139.45703125 C-107.35411646 141.37052918 -112.24096032 147.91458772 -117.2734375 153.90673828 C-124.13474264 161.97873457 -131.84094551 169.27000168 -139.36474609 176.71533203 C-147.62449535 184.76331981 -147.62449535 184.76331981 -155.3984375 193.26953125 C-161.5511003 200.52671759 -168.60772631 207.02878526 -175.36474609 213.71533203 C-184.4396459 222.66583289 -184.4396459 222.66583289 -192.97460938 232.12304688 C-198.60671423 238.40698925 -204.79471575 244.21025414 -210.79199219 250.14257812 C-219.92546016 259.14896574 -219.92546016 259.14896574 -228.52001953 268.6640625 C-230.51100872 270.98300421 -232.65902979 273.12611443 -234.8359375 275.26953125 C-235.60808594 276.03265625 -236.38023437 276.79578125 -237.17578125 277.58203125 C-238.02849609 278.41734375 -238.02849609 278.41734375 -238.8984375 279.26953125 C-234.87045617 280.83712192 -231.21244845 279.68944458 -227.1484375 278.83203125 C-216.1686661 276.74628946 -204.02399705 274.63222167 -193.94921875 280.66015625 C-187.14882075 285.99684954 -183.68077475 293.2329784 -182.58203125 301.7109375 C-182.07985179 312.06231401 -186.49310103 319.78041339 -193.1328125 327.4375 C-202.8710359 337.4095508 -214.589022 344.83934702 -226.17382812 352.46948242 C-244.03917097 364.25430529 -256.08538704 373.18014356 -260.64453125 394.96484375 C-261.07156539 397.05239377 -261.49088423 399.14126386 -261.90499878 401.23141479 C-268.33074318 433.48573029 -278.41751116 460.76177458 -300.8984375 485.26953125 C-301.53523437 485.98882812 -302.17203125 486.708125 -302.828125 487.44921875 C-313.59218797 499.03732482 -329.41927226 505.91210669 -345.08984375 506.60546875 C-386.07433341 507.29755711 -420.72143508 484.13928339 -449.46386719 456.66796875 C-457.37665517 448.95448176 -463.95991797 440.57354622 -469.8984375 431.26953125 C-470.50171875 430.33028809 -470.50171875 430.33028809 -471.1171875 429.37207031 C-489.35781396 400.62883315 -501.0855811 365.96437238 -495.24609375 331.609375 C-494.36418784 328.00983627 -493.28980295 324.70239423 -491.8984375 321.26953125 C-491.4240625 320.08746094 -490.9496875 318.90539062 -490.4609375 317.6875 C-478.81995591 291.85907209 -453.41672947 281.18470353 -428.47290039 271.70556641 C-396.30351017 260.35718283 -396.30351017 260.35718283 -374.43359375 235.84619141 C-371.21211695 228.34068328 -368.80108322 220.53946282 -366.29931641 212.77099609 C-357.6360504 186.01112998 -344.03308274 162.72060517 -318.59765625 149.03125 C-308.23586802 143.96998577 -296.90204641 142.91014463 -285.82421875 146.17578125 C-272.5226657 151.21708689 -263.82151138 160.11088349 -257.5234375 172.70703125 C-254.67251467 179.57848627 -254.85552716 186.94258998 -254.8984375 194.26953125 C-252.7076589 192.1060994 -250.52081344 189.93891161 -248.3359375 187.76953125 C-247.72685547 187.16882813 -247.11777344 186.568125 -246.49023438 185.94921875 C-243.4839225 182.95881329 -240.58221486 179.94193464 -237.83984375 176.70703125 C-231.48295037 169.34200013 -224.34273941 162.66226607 -217.43212891 155.82373047 C-208.3572291 146.87322961 -208.3572291 146.87322961 -199.82226562 137.41601562 C-194.19016077 131.13207325 -188.00215925 125.32880836 -182.00488281 119.39648438 C-172.85751517 110.40261741 -172.85751517 110.40261741 -164.29101562 100.86254883 C-162.8984375 99.26953125 -162.8984375 99.26953125 -160.0546875 96.71875 C-157.27447072 93.56078638 -156.98132981 91.21799507 -156.3984375 87.08203125 C-153.38210759 69.40179633 -140.96588416 57.55549311 -126.8984375 47.26953125 C-121.36195315 43.40149422 -115.62706307 39.84326104 -109.8984375 36.26953125 C-108.00238161 35.07847922 -106.10655959 33.88705483 -104.2109375 32.6953125 C-99.11828976 29.49878846 -94.01506483 26.31955879 -88.90869141 23.14501953 C-86.0087557 21.33826316 -83.11499175 19.5220164 -80.22265625 17.703125 C-26.64132506 -15.90580459 -26.64132506 -15.90580459 0 0 Z M-73.19140625 39.54541016 C-77.16895974 42.07873291 -81.17474767 44.56603523 -85.17944336 47.05615234 C-97.87461425 54.95270771 -110.3464278 62.73962377 -121.8984375 72.26953125 C-122.74019531 72.90761719 -123.58195312 73.54570313 -124.44921875 74.203125 C-129.4006952 78.38068647 -133.1042979 83.71063699 -135.0234375 89.89453125 C-134.66220909 99.64769823 -128.64818893 106.6138343 -121.92578125 113.203125 C-117.22709515 117.36310824 -113.65177343 118.63851187 -107.359375 118.546875 C-92.83656433 116.91017729 -79.59218159 102.9779008 -70.8984375 92.26953125 C-70.12628906 91.32335937 -69.35414063 90.3771875 -68.55859375 89.40234375 C-62.20421387 81.45875005 -56.98986411 73.06106393 -51.8984375 64.26953125 C-47.36370406 56.57970896 -47.36370406 56.57970896 -43.8984375 54.26953125 C-41.40969143 53.93212303 -38.95964786 53.67213078 -36.4609375 53.45703125 C-26.7996083 52.43843516 -18.31998732 49.78693287 -10.8984375 43.26953125 C-6.78451361 37.67002374 -5.15944705 33.2488855 -5.8984375 26.26953125 C-7.77417285 21.68440039 -10.68093946 19.72973844 -14.8984375 17.26953125 C-34.52778109 10.72641672 -57.48918856 29.47223249 -73.19140625 39.54541016 Z M-150.57495117 118.703125 C-151.56072144 119.69505859 -151.56072144 119.69505859 -152.56640625 120.70703125 C-153.29537109 121.43792969 -154.02433594 122.16882813 -154.77539062 122.921875 C-155.53787109 123.69660156 -156.30035156 124.47132813 -157.0859375 125.26953125 C-157.82908203 126.01332031 -158.57222656 126.75710937 -159.33789062 127.5234375 C-162.68927968 130.9012617 -165.9644755 134.29668696 -169.04296875 137.92578125 C-175.36661101 145.26175102 -182.48528472 151.90762068 -189.36474609 158.71533203 C-198.4396459 167.66583289 -198.4396459 167.66583289 -206.97460938 177.12304688 C-212.60671423 183.40698925 -218.79471575 189.21025414 -224.79199219 195.14257812 C-233.73679846 203.96962386 -233.73679846 203.96962386 -242.15380859 213.29345703 C-246.12814357 217.79503376 -250.45771425 221.97141969 -254.7109375 226.20703125 C-255.67399663 227.17366027 -256.63688831 228.14045615 -257.59960938 229.10742188 C-258.50904297 230.01556641 -259.41847656 230.92371094 -260.35546875 231.859375 C-261.18022705 232.68300537 -262.00498535 233.50663574 -262.85473633 234.35522461 C-264.8984375 236.26953125 -264.8984375 236.26953125 -266.8984375 237.26953125 C-266.38469686 247.20185023 -263.28974879 256.88304702 -257.8984375 265.26953125 C-251.5749377 260.09080296 -245.83560304 254.35904041 -240.07373047 248.57519531 C-238.40572684 246.90184396 -236.73246077 245.23389008 -235.05859375 243.56640625 C-228.60908739 237.14731576 -228.60908739 237.14731576 -222.5234375 230.38671875 C-216.3069559 223.10569314 -209.23183716 216.55252049 -202.43212891 209.82373047 C-194.17237965 201.77574269 -194.17237965 201.77574269 -186.3984375 193.26953125 C-180.2457747 186.01234491 -173.18914869 179.51027724 -166.43212891 172.82373047 C-157.19652684 163.72374217 -157.19652684 163.72374217 -148.50927734 154.10742188 C-145.18442684 150.31392769 -141.54606657 146.81472315 -137.9609375 143.26953125 C-136.79208008 142.10744141 -136.79208008 142.10744141 -135.59960938 140.921875 C-133.7015133 139.03542368 -131.80110601 137.1513688 -129.8984375 135.26953125 C-132.09464661 133.02629411 -134.22654743 131.01433464 -136.7109375 129.08203125 C-140.2332903 126.23188318 -142.73797931 122.71403772 -145.3828125 119.0625 C-145.88296875 118.47082031 -146.383125 117.87914063 -146.8984375 117.26953125 C-149.01274294 117.05289869 -149.01274294 117.05289869 -150.57495117 118.703125 Z M-329.5859375 187.01953125 C-338.39121334 198.62723952 -342.5828503 212.42939699 -347.14575195 226.06445312 C-355.65006543 251.36959584 -366.7013952 268.18759899 -391.0012207 280.50756836 C-397.90300455 283.86352358 -404.97334894 286.72152283 -412.14453125 289.44140625 C-413.24834892 289.86011238 -413.24834892 289.86011238 -414.37446594 290.28727722 C-418.06028071 291.67997877 -421.75174061 293.054184 -425.4543457 294.40161133 C-432.55641209 297.01440088 -439.40421495 299.84550743 -446.09765625 303.390625 C-447.00399811 303.86889488 -447.00399811 303.86889488 -447.9286499 304.35682678 C-460.70108518 311.35046895 -468.73389156 321.51585132 -472.8984375 335.26953125 C-479.86369489 359.74050426 -468.4613857 388.05787505 -456.97802734 409.33789062 C-438.52215191 442.35980071 -405.63809207 471.35877163 -368.87548828 482.24487305 C-355.01430229 485.92327373 -341.40139099 485.93722959 -328.58203125 479.01953125 C-307.09059973 465.86303752 -293.94605031 439.99005442 -287.8984375 416.26953125 C-286.08608925 408.42960583 -284.44801591 400.54695136 -282.87695312 392.65551758 C-278.60093317 371.51799862 -271.1703409 356.67513278 -253.4609375 343.83203125 C-252.65398437 343.2400293 -251.84703125 342.64802734 -251.015625 342.03808594 C-244.2816662 337.15061735 -237.35700986 332.57872613 -230.3984375 328.01953125 C-216.69908982 319.24004017 -216.69908982 319.24004017 -205.8984375 307.26953125 C-205.64827877 303.68595884 -205.64827877 303.68595884 -205.8984375 300.26953125 C-207.07585955 298.86715342 -207.07585955 298.86715342 -210.3984375 299.11328125 C-215.00274082 299.17073245 -219.38434942 299.91447361 -223.8984375 300.76953125 C-238.19422373 303.47743615 -250.52690938 302.2744948 -262.8359375 293.9609375 C-276.71316354 283.0264268 -285.64091052 261.32640174 -287.8984375 244.26953125 C-288.95516798 229.299488 -286.64653306 216.58429989 -281.46826172 202.61181641 C-277.51475038 192.69769081 -277.51475038 192.69769081 -277.8984375 182.26953125 C-280.68577718 176.38198724 -284.62615434 172.01871038 -289.8984375 168.26953125 C-306.33234031 162.79156365 -320.08495612 174.88994502 -329.5859375 187.01953125 Z " fill="#000000" transform="translate(495.8984375,5.73046875)"/>
<path d="M0 0 C2.95797436 1.89985707 5.25726011 4.27269695 7.66796875 6.81640625 C8.35127762 7.50629135 9.03458649 8.19617645 9.73860168 8.90696716 C11.9076498 11.10736873 14.04684257 13.33450818 16.1875 15.5625 C17.63562074 17.03362479 19.08547613 18.50304419 20.53710938 19.97070312 C21.93645135 21.39691295 23.33428834 22.82460128 24.73046875 24.25390625 C25.37122849 24.90943985 26.01198822 25.56497345 26.67216492 26.2403717 C38.22211041 38.27544669 38.22211041 38.27544669 38.625 44.6875 C38.33915705 48.82507664 37.06195105 51.11816371 34 54 C30.40535251 55.79732374 26.90844163 55.67556583 23 55 C21.18041992 53.82202148 21.18041992 53.82202148 19.41796875 52.18359375 C18.72993164 51.54728027 18.04189453 50.9109668 17.33300781 50.25537109 C13.17152178 46.232369 9.03850102 42.18605742 4.9543457 38.0847168 C3.4400742 36.56508332 1.9205257 35.05087483 0.40039062 33.53710938 C-16.82418871 16.32869379 -16.82418871 16.32869379 -17.1171875 10.78125 C-16.71333204 6.97719214 -16.46265484 4.61687312 -14.125 1.5 C-9.582479 -1.70648541 -5.1732908 -1.47353312 0 0 Z " fill="#000000" transform="translate(145,328)"/>
<path d="M0 0 C3.00032523 2.01184599 5.46371109 4.43899092 8 7 C8.67160156 7.64710938 9.34320313 8.29421875 10.03515625 8.9609375 C13.19649073 12.04308634 16.20628542 15.19624711 19.0625 18.5625 C23.39228417 23.62236488 28.18567126 28.23414487 32.93383789 32.89672852 C33.57184326 33.52635498 34.20984863 34.15598145 34.8671875 34.8046875 C35.44581543 35.37171387 36.02444336 35.93874023 36.62060547 36.52294922 C39.33048164 39.42467503 39.27204152 42.07751761 39.22265625 45.96484375 C38.90143435 48.90092462 37.81916075 50.70920498 36 53 C32.30980381 55.46013079 30.05067885 55.65914775 25.69140625 55.5703125 C19.92513353 54.34843178 16.25550831 49.62933265 12.5534668 45.3137207 C6.95087895 38.78608723 0.86147772 32.79532538 -5.26147461 26.7590332 C-6.6620081 25.37654966 -8.0595637 23.99105139 -9.45703125 22.60546875 C-10.28178955 21.79231201 -11.10654785 20.97915527 -11.95629883 20.14135742 C-15.81031477 16.10318112 -16.44255823 13.59273661 -16.3203125 8.22265625 C-15.72812269 4.11343671 -13.37851746 2.08312086 -10.25 -0.375 C-6.61972876 -1.38340868 -3.51716448 -1.1937821 0 0 Z " fill="#000000" transform="translate(111,362)"/>
<path d="M0 0 C4.05296013 2.35808589 6.14543467 4.49895575 7.5 8.9375 C8.2086576 12.82415818 7.82706395 15.42530965 6 19 C3.38333525 22.46323275 1.30617672 24.24538827 -2.9375 25 C-6.99517464 25.26795965 -9.5971062 24.29497489 -13 22 C-16.30797668 19.03422781 -16.78180399 15.51826345 -17.1328125 11.25 C-16.86955164 6.79005134 -14.15620141 4.28466824 -11.3125 1.125 C-7.57283712 -0.69429545 -4.06363851 -0.73244091 0 0 Z " fill="#000000" transform="translate(152,437)"/>
</svg>
