<?xml version="1.0" encoding="UTF-8"?>
<svg version="1.1" xmlns="http://www.w3.org/2000/svg" width="512" height="512">
<path d="M0 0 C1.26179276 -0.00322445 2.52358552 -0.00644889 3.82361442 -0.00977105 C5.21101886 -0.00830014 6.59842321 -0.00673244 7.98582745 -0.00507832 C9.46967062 -0.00694768 10.95351331 -0.00924889 12.43735522 -0.01194364 C16.50680585 -0.01805247 20.57623591 -0.01792912 24.64569008 -0.01674926 C29.03775894 -0.01654503 33.42982123 -0.0220662 37.82188702 -0.02680683 C46.42363195 -0.03510883 55.02537002 -0.03786147 63.62711862 -0.03841921 C70.61962102 -0.03889457 77.61212116 -0.04095029 84.60462284 -0.04411983 C104.43412054 -0.05292503 124.26361284 -0.0575394 144.09311251 -0.05678936 C145.16184586 -0.0567494 146.23057921 -0.05670945 147.33169842 -0.05666828 C148.40173812 -0.0566274 149.47177782 -0.05658652 150.57424297 -0.0565444 C167.91674211 -0.05613793 185.25921953 -0.06570816 202.60171238 -0.07980665 C220.41323928 -0.09417207 238.2247556 -0.10107675 256.03628844 -0.10021287 C266.03435793 -0.09988097 276.03240467 -0.10262516 286.03046894 -0.11339092 C294.54267218 -0.12249808 303.05484234 -0.12466938 311.56704835 -0.1178815 C315.90850527 -0.11461745 320.24989872 -0.1145555 324.5913496 -0.12323475 C328.56942486 -0.13110565 332.54738639 -0.12966229 336.52545889 -0.12095062 C337.96081563 -0.11941694 339.39618088 -0.1212268 340.83152757 -0.12681069 C362.60857842 -0.20588556 362.60857842 -0.20588556 371.5443449 8.12863445 C377.24497923 14.13741118 379.00332841 20.21399617 378.90079021 28.32712078 C378.90283459 29.1149696 378.90487896 29.90281841 378.90698528 30.71454144 C378.90997318 33.29682547 378.89158241 35.87845848 378.8724699 38.4606657 C378.86940974 40.2619082 378.86753558 42.06315306 378.86679363 43.864398 C378.86220374 47.62761866 378.84782358 51.39062375 378.8255949 55.15378094 C378.79721176 59.98381544 378.78637172 64.8136812 378.7819128 69.6437912 C378.77776382 73.35744705 378.76795236 77.07106866 378.75603771 80.78470707 C378.75033264 82.56655573 378.74557472 84.34840768 378.74177074 86.13026142 C378.73492057 88.61260731 378.72129674 91.0948179 378.70547771 93.57712078 C378.70435986 94.31634274 378.703242 95.05556469 378.70209026 95.81718731 C378.65904654 100.89923117 378.65904654 100.89923117 377.5443449 103.12863445 C378.6787199 103.33488445 379.8130949 103.54113445 380.9818449 103.75363445 C387.79151907 105.50434856 393.29437739 108.74433886 396.9662199 114.82394695 C400.57287216 121.67111847 402.74233249 129.10027712 405.1068449 136.44113445 C405.62556963 138.02787743 406.14528238 139.61429772 406.66592693 141.2004118 C407.74947271 144.50387477 408.82874605 147.80868902 409.90518475 151.1144743 C412.28593526 158.41306729 414.72298595 165.69285255 417.15735149 172.97369671 C417.89224631 175.17255357 418.62595208 177.37180226 419.35904217 179.57126141 C419.59096264 180.26586971 419.82288311 180.96047802 420.06183147 181.67613506 C420.52313934 183.06335764 420.98122466 184.45165613 421.43603802 185.84102154 C422.61639821 189.43187825 423.85585788 192.98307395 425.20474529 196.51437664 C429.02238336 206.73316921 430.47489355 215.84150099 430.27163982 226.74533367 C430.23136447 229.1574071 430.25122941 231.56410354 430.27676678 233.9762907 C430.27228747 243.5569112 429.58311181 251.60302672 422.81851482 259.02121258 C418.61001081 263.11898353 413.23349488 266.05100606 407.2652998 266.17659092 C404.72110294 265.94632178 402.21416052 265.60745832 399.68789959 265.22799969 C397.69511886 264.97307421 395.70173313 264.7228465 393.70785809 264.4766264 C392.65402683 264.34410851 391.60019558 264.21159061 390.51443005 264.07505703 C332.82701017 257.10531439 332.82701017 257.10531439 280.80130672 277.87525749 C269.06024118 287.27182833 258.61223324 298.0558156 248.5443449 309.19113445 C248.08973825 309.69262556 247.63513161 310.19411666 247.166749 310.71080446 C235.39075796 323.72525492 224.19237389 337.17582498 213.5443449 351.12863445 C214.8382895 353.96293044 216.2120517 356.05942437 218.37935162 358.29162884 C218.95782848 358.89164211 219.53630535 359.49165539 220.13231182 360.10985088 C220.76545803 360.75623013 221.39860424 361.40260937 222.0509367 362.06857586 C222.71963787 362.75845089 223.38833904 363.44832592 224.07730389 364.15910625 C231.0782678 371.36521672 238.13994937 378.51251862 245.20572186 385.65500164 C248.55122911 389.04054325 251.87752708 392.44334778 255.18814373 395.86300945 C259.19452925 400.00112413 263.23234544 404.10599437 267.29414082 408.18971157 C268.83102266 409.74547864 270.35678666 411.31231587 271.87061405 412.89052486 C281.60779269 423.49823828 281.60779269 423.49823828 294.78579998 427.96994305 C295.96652584 427.99027599 297.1472517 428.01060894 298.36375713 428.03155804 C303.28201231 428.18167073 306.8088417 430.01832007 310.5443449 433.12863445 C316.61763717 439.62258766 319.38512213 446.25558386 319.5443449 455.12863445 C318.89884864 463.57746326 314.72649063 469.4397033 308.5443449 475.00363445 C301.79730635 479.78278676 295.045017 479.46289553 287.0599699 479.4997282 C285.84919781 479.50875668 284.63842571 479.51778515 283.39096355 479.52708721 C280.83241523 479.54157317 278.27383 479.55047232 275.71524334 479.55417156 C271.82169678 479.566051 267.92974405 479.61524342 264.0365324 479.66574383 C261.54435259 479.67521077 259.0521631 479.6824445 256.5599699 479.6872282 C255.40547344 479.70676052 254.25097698 479.72629284 253.06149578 479.74641705 C244.7628973 479.7006089 237.9080663 478.10998048 231.63669109 472.38814068 C225.23059136 465.54378602 224.20959741 459.44902269 224.3412199 450.3122282 C224.5443449 447.12863445 224.5443449 447.12863445 225.33681011 444.2590971 C225.87288449 441.03476904 225.87288449 441.03476904 223.76640606 438.50891399 C222.87594082 437.63399303 221.98547558 436.75907207 221.06802654 435.85763836 C220.58049404 435.36908367 220.09296154 434.88052898 219.59065533 434.37716961 C217.97797495 432.76935918 216.34194643 431.18774595 214.70450115 429.60519695 C213.58054064 428.49429468 212.45811767 427.38183481 211.33717632 426.26788616 C208.38493937 423.34235642 205.41228921 420.43845379 202.43490887 417.53854656 C199.39954354 414.57483171 196.38393663 411.59116197 193.36661053 408.6091032 C187.44502383 402.76255515 181.50172577 396.93870446 175.5443449 391.12863445 C171.78578111 392.69770294 169.36587447 395.03545192 166.48453045 397.88205242 C165.99466152 398.36359783 165.50479259 398.84514324 165.00007915 399.34128094 C163.38828525 400.92904696 161.78419086 402.52430869 160.18106365 404.12082195 C159.06344851 405.22946984 157.94575637 406.33804011 156.82799053 407.44653606 C154.49004905 409.76800788 152.15651947 412.09381988 149.82535076 414.42209148 C146.83302591 417.40901484 143.82485585 420.37942307 140.81253624 423.34616184 C138.50077215 425.62824401 136.20028314 427.92143758 133.90281391 430.21790218 C132.79805565 431.31844549 131.68916242 432.41485375 130.57614994 433.50704861 C129.0244639 435.0319865 127.4892487 436.57181003 125.9571867 438.11642742 C124.63958607 439.42642208 124.63958607 439.42642208 123.29536724 440.76288128 C121.28444092 442.92748475 121.28444092 442.92748475 121.75145245 445.26172161 C122.01310696 445.87780285 122.27476147 446.49388409 122.5443449 447.12863445 C123.37566886 455.89316421 122.7721548 462.85974009 117.5443449 470.12863445 C113.0481427 475.16950723 107.62505177 478.69403089 100.81457806 479.41936016 C97.51544603 479.54143518 94.22856024 479.57057904 90.9271574 479.5622282 C89.71542858 479.56747005 88.50369976 479.57271191 87.25525188 479.5781126 C84.69846645 479.58452066 82.14165148 479.58321163 79.58487225 479.57467937 C75.68931399 479.56617803 71.79522695 479.59493728 67.89981365 479.62668133 C65.40892867 479.6282938 62.91804111 479.62771492 60.4271574 479.6247282 C58.69237637 479.64157917 58.69237637 479.64157917 56.92254925 479.65877056 C48.89259782 479.59015833 42.78606787 478.2128703 36.2396574 473.4528532 C29.93481576 466.8813889 27.57296233 460.20036027 27.5443449 451.12863445 C28.16494203 443.87034634 32.00217183 437.47582552 37.2474699 432.51925945 C41.83820926 429.00382841 46.53893303 426.83965192 52.38189983 427.40147686 C59.99543862 427.82378352 64.09170303 426.33415104 69.70224857 421.35546303 C73.53288342 417.6884588 77.214324 413.89287362 80.8802824 410.0622282 C82.4940844 408.42415021 84.11080277 406.78894073 85.73028851 405.15648174 C89.96491954 400.87244585 94.15904105 396.55082697 98.34567547 392.21994305 C102.63272264 387.7994054 106.95726548 383.41588592 111.2787199 379.02902508 C119.73752236 370.43121003 128.15395532 361.79318821 136.5443449 353.12863445 C132.9720758 348.88020195 129.32635248 344.78491883 125.40030193 340.85519695 C124.92459759 340.37774029 124.44889324 339.90028362 123.95877361 339.40835857 C122.40904734 337.85428537 120.85575619 336.30383557 119.3021574 334.75363445 C118.20873986 333.65954171 117.11547067 332.56530069 116.02234173 331.47091961 C113.73946682 329.18657731 111.45481127 326.90403533 109.16885662 324.62277508 C106.25848753 321.71809586 103.35262303 318.80895831 100.44809437 315.89844036 C98.19351187 313.64022046 95.93652352 311.38441712 93.67883205 309.12930584 C92.60734097 308.0584756 91.53657485 306.98691938 90.46658993 305.91458416 C83.61780904 299.02745472 83.61780904 299.02745472 76.31997967 292.62619305 C73.16986585 289.96687914 71.17480612 287.16405319 68.96548748 283.68966961 C63.52209632 275.84524658 57.39651402 268.83644859 47.8020277 266.44514751 C31.21406509 263.68817799 13.90591409 264.84978094 -2.82418537 265.38760662 C-10.6903969 265.61902307 -18.55924239 265.71170102 -26.4280777 265.80927753 C-32.54485594 265.88541169 -38.65706134 265.98654313 -44.77164936 266.16998577 C-46.98443282 266.22180965 -49.19721661 266.2736191 -51.4100008 266.3254118 C-52.89457027 266.38480183 -52.89457027 266.38480183 -54.40913105 266.44539165 C-62.47402944 266.60022257 -68.01436369 264.37870961 -74.7056551 260.00363445 C-82.4368596 251.92101157 -83.8672507 242.23816196 -84.0806551 231.44113445 C-84.09868183 230.65828075 -84.11670856 229.87542706 -84.13528156 229.06885052 C-84.33106256 203.74335875 -73.55211483 179.13714043 -64.92520046 155.6856842 C-62.77101726 149.8265959 -60.70162557 143.95013329 -58.73983479 138.02365398 C-58.29706103 136.69646122 -57.85426151 135.36927706 -57.41143513 134.04210186 C-56.58272424 131.55534271 -55.77303754 129.06487621 -54.97277546 126.5685606 C-51.95470827 117.51918826 -48.30304915 109.63907064 -39.4556551 105.12863445 C-36.48106401 104.27875128 -33.50502514 103.64363917 -30.4556551 103.12863445 C-30.7856551 102.46863445 -31.1156551 101.80863445 -31.4556551 101.12863445 C-31.56938078 98.61333372 -31.62346533 96.12506812 -31.63265705 93.60885906 C-31.64251385 92.44504711 -31.64251385 92.44504711 -31.65256977 91.25772381 C-31.6723266 88.68214098 -31.6839741 86.10661668 -31.69393635 83.5309782 C-31.69801188 82.65040815 -31.7020874 81.7698381 -31.70628643 80.86258411 C-31.72716293 76.19679403 -31.74145462 71.53103344 -31.75082111 66.86520672 C-31.76185502 62.05908012 -31.7962152 57.25342043 -31.83599281 52.44745827 C-31.86222526 48.74209553 -31.87051909 45.03684256 -31.87410259 41.33139515 C-31.87895587 39.56087963 -31.89053375 37.79036859 -31.90914059 36.01994419 C-32.10074196 16.57144643 -32.10074196 16.57144643 -25.27206135 8.5700407 C-24.52827229 7.95000164 -23.78448322 7.32996258 -23.0181551 6.69113445 C-21.90633869 5.73400555 -21.90633869 5.73400555 -20.77206135 4.7575407 C-14.50953572 0.35370733 -7.47451218 0.00485044 0 0 Z M-12.2429018 21.30601788 C-14.17159534 24.20460313 -13.84554854 26.84791886 -13.85970783 30.29049969 C-13.86657108 31.01603039 -13.87343433 31.74156109 -13.88050556 32.48907757 C-13.89881464 34.88865991 -13.89493032 37.28759096 -13.88924885 39.6872282 C-13.89380887 41.35487869 -13.8991139 43.02252729 -13.90513325 44.69017315 C-13.91407252 48.18642081 -13.91163224 51.68244017 -13.90170002 55.17868328 C-13.89021217 59.65914893 -13.9104143 64.13882625 -13.93961716 68.61918831 C-13.9579644 72.06360665 -13.95768964 75.50783559 -13.95197964 78.95229053 C-13.95182622 80.6041102 -13.95788709 82.25594255 -13.97027111 83.9077158 C-13.98515129 86.21810476 -13.97452762 88.52703146 -13.95736408 90.83737469 C-13.95719791 92.15181057 -13.95703175 93.46624645 -13.95686054 94.82051373 C-13.37524461 98.65937013 -12.49012625 99.79978638 -9.4556551 102.12863445 C-6.73795357 103.48748522 -4.61149195 103.25531362 -1.56724453 103.25726891 C-0.30474003 103.26049335 0.95776447 103.2637178 2.25852668 103.26703995 C3.67263701 103.26556859 5.08674723 103.26400085 6.50085735 103.26234722 C7.99291101 103.26421387 9.48496418 103.26651398 10.97701657 103.26921254 C15.09215069 103.2753551 19.20726457 103.27519408 23.32240224 103.27401817 C27.75466271 103.27381478 32.18691658 103.279327 36.619174 103.28407574 C45.30849199 103.29239634 53.9978032 103.29513121 62.68712483 103.29568812 C69.7474948 103.29616262 76.80786252 103.29821407 83.86823177 103.30138874 C103.86833924 103.31019923 123.86844134 103.31480751 143.86855076 103.31405827 C144.94766146 103.31401831 146.02677216 103.31397835 147.13858318 103.31393719 C148.75921664 103.31387587 148.75921664 103.31387587 150.41259016 103.31381331 C167.92759015 103.31340674 185.44256866 103.32297783 202.95756243 103.33707555 C220.92484377 103.35142365 238.89211461 103.3583466 256.85940182 103.35748178 C266.95348748 103.35714926 277.04755061 103.3599202 287.14163113 103.37065983 C295.73537416 103.37974427 304.32908446 103.38195708 312.92283021 103.3751504 C317.31008985 103.37187473 321.69728662 103.37186604 326.08454037 103.38050365 C330.09765904 103.38832363 334.11066451 103.38698372 338.12378027 103.37821952 C339.57869504 103.37667453 341.03361807 103.37853794 342.48852311 103.3840796 C344.46042149 103.39109536 346.43235417 103.3846767 348.40425205 103.37752342 C349.5013191 103.37774079 350.59838615 103.37795816 351.72869766 103.37818211 C354.5818787 103.12530787 356.18267966 102.71815329 358.5443449 101.12863445 C361.01871808 97.41707469 360.80872602 95.50848215 360.83487225 91.07443523 C360.84158947 90.3602644 360.84830669 89.64609356 360.85522747 88.91028118 C360.87423339 86.54809909 360.87813301 84.18620076 360.8802824 81.82394695 C360.88670884 80.18111332 360.89343708 78.53828085 360.90045452 76.89544964 C360.91243397 73.45052722 360.91613469 70.00570514 360.91495037 66.56076336 C360.91474721 62.14993001 360.94204292 57.73974119 360.97649479 53.32906055 C360.99875136 49.93523495 361.00278829 46.54156472 361.00173092 43.14767361 C361.004089 41.5217889 361.01292427 39.89590005 361.02839565 38.27008724 C361.0480303 35.99347584 361.04222874 33.71825739 361.03018475 31.44162273 C361.03303478 30.14717236 361.03588482 28.85272198 361.03882122 27.51904583 C360.4569405 23.52934008 359.4507061 21.88546788 356.5443449 19.12863445 C353.21242999 17.94776771 349.98524877 18.00228252 346.47510147 18 C345.22316516 17.99677555 343.97122884 17.99355111 342.68135506 17.99022895 C341.28953928 17.99170013 339.89772359 17.99326785 338.50590801 17.99492168 C337.02934013 17.99305394 335.55277275 17.99075338 334.07620615 17.98805636 C330.01312755 17.98192751 325.9500695 17.98207323 321.88698733 17.98325074 C317.50723141 17.98345447 313.12748214 17.97793867 308.7477293 17.97319317 C300.16529862 17.96488035 291.5828748 17.96213805 283.00044043 17.96158079 C276.02641599 17.96110597 269.05239382 17.95905295 262.07837009 17.95588017 C242.31649469 17.94707224 222.55462471 17.94246106 202.79274733 17.94321064 C201.19409355 17.94327057 201.19409355 17.94327057 199.56314373 17.94333172 C198.4960772 17.9433726 197.42901067 17.94341348 196.32960879 17.9434556 C179.02880677 17.94386222 161.72802651 17.93428908 144.42723078 17.92019335 C126.67345363 17.90584238 108.91968709 17.89892245 91.16590399 17.89978713 C81.19421816 17.90011952 71.22255513 17.89735404 61.25087452 17.88660908 C52.76224413 17.87752094 44.27364688 17.87531494 35.78501374 17.8821185 C31.4522982 17.88539212 27.11964632 17.88541013 22.78693676 17.87676525 C18.82257292 17.86893649 14.8583236 17.87029433 10.89396267 17.87904938 C9.45793229 17.88059239 8.02189351 17.87873827 6.58587302 17.87318931 C4.63706997 17.86615617 2.68823212 17.87260174 0.73942947 17.87974548 C-0.88574873 17.87941943 -0.88574873 17.87941943 -2.54375881 17.87908679 C-6.28001461 18.19928154 -9.12219065 19.25018889 -12.2429018 21.30601788 Z M-35.4556551 126.12863445 C-36.61889252 128.7327182 -37.55435764 131.14295317 -38.4100008 133.84054852 C-38.66432377 134.60045086 -38.91864674 135.3603532 -39.18067646 136.14328289 C-40.01199615 138.63910006 -40.82182331 141.14132548 -41.63143635 143.64425945 C-42.20594694 145.38391672 -42.78174628 147.12314888 -43.35877705 148.86197186 C-44.86980822 153.42748598 -46.36246778 157.99880661 -47.85159016 162.57150555 C-49.37515306 167.23766424 -50.91757041 171.89758099 -52.45760822 176.55832195 C-54.69684074 183.34736757 -56.931576 190.13786059 -59.14828205 196.93429852 C-59.50117802 198.01115917 -59.50117802 198.01115917 -59.86120319 199.10977459 C-60.97844989 202.05968452 -60.97844989 202.05968452 -61.4556551 205.12863445 C-45.2856551 205.12863445 -29.1156551 205.12863445 -12.4556551 205.12863445 C-11.3419051 201.35425945 -10.2281551 197.57988445 -9.0806551 193.69113445 C-8.73341389 192.52010174 -8.38617268 191.34906902 -8.028409 190.14255047 C-6.27688435 184.1708924 -4.72420791 178.22153205 -3.4556551 172.12863445 C-4.13112385 171.89789227 -4.8065926 171.66715008 -5.5025301 171.4294157 C-11.72147101 169.15572777 -15.39825672 167.24343122 -18.4556551 161.12863445 C-20.5580904 148.94751445 -15.33242611 137.67639601 -11.1900301 126.4660368 C-10.30578585 124.05996581 -10.30578585 124.05996581 -10.4556551 121.12863445 C-13.68434256 120.98279381 -16.91217874 120.8943934 -20.1431551 120.81613445 C-21.05516682 120.77423992 -21.96717854 120.73234539 -22.90682697 120.68918133 C-24.23617268 120.66501141 -24.23617268 120.66501141 -25.59237385 120.6403532 C-26.80993366 120.60107708 -26.80993366 120.60107708 -28.05209064 120.5610075 C-31.66394689 121.41398523 -33.05429591 123.3368173 -35.4556551 126.12863445 Z M9.5443449 121.12863445 C6.7071095 128.05851916 4.14383247 135.01966991 1.7943449 142.12863445 C1.47852459 143.06836102 1.16270428 144.00808758 0.83731365 144.9762907 C0.53954021 145.87218914 0.24176678 146.76808758 -0.0650301 147.69113445 C-0.33283283 148.49679852 -0.60063557 149.30246258 -0.87655354 150.1325407 C-1.54853125 152.10236735 -1.54853125 152.10236735 -1.4556551 154.12863445 C3.4943449 154.12863445 8.4443449 154.12863445 13.5443449 154.12863445 C17.1743449 143.23863445 20.8043449 132.34863445 24.5443449 121.12863445 C19.5943449 121.12863445 14.6443449 121.12863445 9.5443449 121.12863445 Z M43.5443449 121.12863445 C42.93961346 122.89908123 42.93961346 122.89908123 42.32266521 124.70529461 C40.81803105 129.10285005 39.30202143 133.49641347 37.78262615 137.88888836 C37.12784448 139.78691408 36.47611136 141.68599444 35.82754803 143.58615398 C34.89228215 146.32453214 33.9459506 149.05887212 32.9974699 151.79269695 C32.56908825 153.05867214 32.56908825 153.05867214 32.13205242 154.35022259 C29.92995604 160.64515137 27.50391068 166.55289498 21.5443449 170.12863445 C20.43575115 170.35164227 19.3271574 170.57465008 18.1849699 170.8044157 C15.19842875 172.07038615 14.58855343 173.03101241 13.22525311 176.04147625 C12.04271433 179.88077683 11.04362616 183.7242158 10.1068449 187.62863445 C9.75590438 188.98737508 9.40241344 190.34545969 9.04629803 191.7028532 C7.21978449 198.33087811 7.21978449 198.33087811 6.5443449 205.12863445 C22.7143449 205.12863445 38.8843449 205.12863445 55.5443449 205.12863445 C56.7818449 198.35332195 56.7818449 198.35332195 58.0443449 191.44113445 C58.30538006 190.0248576 58.56641521 188.60858074 58.83536053 187.14938641 C59.13990154 185.46268841 59.13990154 185.46268841 59.4505949 183.7419157 C59.76480389 182.02162151 59.76480389 182.02162151 60.08536053 180.26657391 C60.49133336 177.49105855 60.63599443 174.92623631 60.5443449 172.12863445 C59.94106365 171.86050945 59.3377824 171.59238445 58.7162199 171.31613445 C53.67659896 168.84509451 50.28245985 166.74115981 48.20938396 161.38156414 C45.97074479 153.79780411 48.16523103 145.44512408 49.5443449 137.87863445 C49.92309293 135.76992921 50.29822852 133.66057119 50.6693449 131.55050945 C50.83692303 130.6285075 51.00450115 129.70650555 51.1771574 128.75656414 C51.53781143 126.17539399 51.61019598 123.73092782 51.5443449 121.12863445 C48.9043449 121.12863445 46.2643449 121.12863445 43.5443449 121.12863445 Z M70.5443449 121.12863445 C69.21835119 125.76961244 68.17440262 129.80724773 67.4740324 134.4997282 C67.30000896 135.65021648 67.12598553 136.80070477 66.94668865 137.98605633 C66.77266521 139.16748211 66.59864178 140.34890789 66.4193449 141.56613445 C66.23758709 142.77463055 66.05582928 143.98312664 65.86856365 145.22824383 C65.42305002 148.19442669 64.98313886 151.16145009 64.5443449 154.12863445 C69.8243449 154.12863445 75.1043449 154.12863445 80.5443449 154.12863445 C83.85183886 137.7401054 83.85183886 137.7401054 85.5443449 121.12863445 C80.5943449 121.12863445 75.6443449 121.12863445 70.5443449 121.12863445 Z M104.5443449 121.12863445 C103.25646281 126.28016283 102.15546893 131.06321682 101.36075115 136.26144695 C101.05234295 138.21244305 101.05234295 138.21244305 100.73770428 140.2028532 C100.41983462 142.23397395 100.1050574 144.26542999 99.79703045 146.29806805 C99.4938925 148.28724636 99.17745784 150.27438383 98.86075115 152.26144695 C98.67971844 153.43594402 98.49868572 154.61044109 98.31216717 155.82052898 C97.50643628 159.29196094 96.22375582 161.99916314 94.5443449 165.12863445 C94.2143449 166.11863445 93.8843449 167.10863445 93.5443449 168.12863445 C90.4586456 169.76791221 87.24504297 170.44759439 83.8568449 171.1872282 C83.04860271 171.36439373 82.24036053 171.54155926 81.40762615 171.72409344 C80.48530193 171.92434124 80.48530193 171.92434124 79.5443449 172.12863445 C78.72697741 176.12765555 77.91633538 180.12801207 77.1068449 184.12863445 C76.87674725 185.25398602 76.64664959 186.37933758 76.40957928 187.5387907 C76.187216 188.64093914 75.96485271 189.74308758 75.73575115 190.87863445 C75.53151531 191.8841032 75.32727947 192.88957195 75.11685467 193.92550945 C74.45336365 197.63766387 74.01207774 201.38677172 73.5443449 205.12863445 C87.0743449 205.12863445 100.6043449 205.12863445 114.5443449 205.12863445 C115.79191619 191.81645157 115.79191619 191.81645157 117.03262615 178.50363445 C117.53750345 173.06983993 118.04316514 167.63612677 118.55362225 162.2028532 C118.96533853 157.82002724 119.37343303 153.43687748 119.77907085 149.05348492 C119.93407353 147.38532382 120.0903574 145.71728124 120.24797344 144.04936504 C120.4693488 141.70434906 120.68606974 139.35894426 120.90176678 137.01340008 C120.96722195 136.33150616 121.03267712 135.64961224 121.10011578 134.94705486 C121.52242254 130.28315914 121.5443449 125.85586601 121.5443449 121.12863445 C115.9343449 121.12863445 110.3243449 121.12863445 104.5443449 121.12863445 Z M139.5443449 121.12863445 C138.62773776 130.89927658 137.71427951 140.67019928 136.8062849 150.44164562 C136.38449479 154.97942052 135.96135294 159.51706071 135.53506756 164.0544157 C135.12335127 168.43724166 134.71525678 172.82039143 134.30961895 177.20378399 C134.15461627 178.87194508 133.9983324 180.53998766 133.84071636 182.20790386 C133.619341 184.55291985 133.40262006 186.89832465 133.18692303 189.24386883 C133.12146786 189.92576275 133.05601269 190.60765667 132.98857403 191.31021404 C132.56626726 195.97410977 132.5443449 200.40140289 132.5443449 205.12863445 C145.7443449 205.12863445 158.9443449 205.12863445 172.5443449 205.12863445 C172.5443449 194.23863445 172.5443449 183.34863445 172.5443449 172.12863445 C169.5743449 171.13863445 166.6043449 170.14863445 163.5443449 169.12863445 C157.97583337 163.79708086 156.37516143 158.56825407 156.16528606 150.96008587 C156.15373486 150.20359753 156.14218365 149.44710918 156.1302824 148.66769695 C156.11091625 147.87712902 156.0915501 147.08656109 156.0715971 146.27203655 C156.01218437 143.76600963 155.96557063 141.2599358 155.9193449 138.75363445 C155.88112977 137.04658402 155.84207601 135.33955215 155.8021574 133.6325407 C155.70494765 129.46467272 155.62507746 125.29698396 155.5443449 121.12863445 C150.2643449 121.12863445 144.9843449 121.12863445 139.5443449 121.12863445 Z M173.5443449 121.12863445 C173.5443449 132.01863445 173.5443449 142.90863445 173.5443449 154.12863445 C181.7943449 154.12863445 190.0443449 154.12863445 198.5443449 154.12863445 C198.5443449 143.23863445 198.5443449 132.34863445 198.5443449 121.12863445 C190.2943449 121.12863445 182.0443449 121.12863445 173.5443449 121.12863445 Z M216.5443449 121.12863445 C216.5443449 132.01863445 216.5443449 142.90863445 216.5443449 154.12863445 C226.7743449 154.12863445 237.0043449 154.12863445 247.5443449 154.12863445 C246.69910321 146.48210246 246.69910321 146.48210246 245.35293865 138.9997282 C245.15240887 138.04767498 244.95187908 137.09562176 244.74527264 136.11471844 C244.49334148 134.94368572 244.24141033 133.77265301 243.9818449 132.56613445 C243.1774699 128.79175945 242.3730949 125.01738445 241.5443449 121.12863445 C233.2943449 121.12863445 225.0443449 121.12863445 216.5443449 121.12863445 Z M259.5443449 121.12863445 C260.33070683 125.50464854 261.12321566 129.87939628 261.9193449 134.25363445 C262.14106365 135.49113445 262.3627824 136.72863445 262.5912199 138.00363445 C262.81036053 139.20246258 263.02950115 140.4012907 263.2552824 141.63644695 C263.45428143 142.7361784 263.65328045 143.83590984 263.85830975 144.96896648 C264.59759185 148.64749863 264.59759185 148.64749863 266.5443449 154.12863445 C274.4643449 154.12863445 282.3843449 154.12863445 290.5443449 154.12863445 C289.82451244 145.59916084 289.82451244 145.59916084 288.57168865 137.2419157 C288.41176434 136.37606853 288.25184002 135.51022137 288.08706951 134.61813641 C287.88734539 133.56972576 287.68762127 132.52131512 287.4818449 131.44113445 C286.8424699 128.03800945 286.2030949 124.63488445 285.5443449 121.12863445 C276.9643449 121.12863445 268.3843449 121.12863445 259.5443449 121.12863445 Z M303.5443449 121.12863445 C303.8330949 122.84308758 304.1218449 124.5575407 304.4193449 126.32394695 C309.40937342 156.69919172 309.40937342 156.69919172 306.0443449 164.69113445 C302.8502139 167.80541218 299.41691624 169.95779591 295.5443449 172.12863445 C296.10653183 179.79934186 297.16815509 187.26402854 298.6068449 194.81613445 C299.2462199 198.21925945 299.8855949 201.62238445 300.5443449 205.12863445 C313.7443449 205.12863445 326.9443449 205.12863445 340.5443449 205.12863445 C339.85737885 199.63290605 339.0435899 194.55940845 337.68667889 189.24386883 C337.50121502 188.50142925 337.31575115 187.75898968 337.12466717 186.99405193 C336.51771866 184.56901839 335.90414337 182.14571613 335.29043865 179.72238445 C334.86547091 178.02998304 334.44092188 176.33747644 334.01677227 174.6448698 C332.90468599 170.21172445 331.78695196 165.78002234 330.66800213 161.34860516 C329.5250354 156.81781265 328.38746223 152.28566665 327.24942303 147.75363445 C325.01964807 138.87730578 322.78340207 130.00262624 320.5443449 121.12863445 C314.9343449 121.12863445 309.3243449 121.12863445 303.5443449 121.12863445 Z M338.5443449 121.12863445 C340.54225559 129.27589989 342.54193073 137.42272956 344.54370689 145.56904602 C345.47370133 149.35392465 346.40314364 153.13893688 347.33121014 156.92428875 C348.23109099 160.5945823 349.13257077 164.26448008 350.03504658 167.93413639 C350.37476777 169.316632 350.71396417 170.6992567 351.05255985 172.08202839 C353.75926918 183.13336133 356.64797406 194.12242524 359.5443449 205.12863445 C375.7143449 205.12863445 391.8843449 205.12863445 408.5443449 205.12863445 C404.34837387 192.12826552 404.34837387 192.12826552 400.12637615 179.13644695 C397.9838605 172.56656966 395.85623586 165.99220269 393.74472332 159.41229534 C392.51115181 155.57951269 391.26448814 151.75107096 390.01486492 147.92349529 C389.41161761 146.06671653 388.81371524 144.20819237 388.22128582 142.34793377 C387.38604023 139.72834532 386.53188395 137.11563502 385.67325115 134.50363445 C385.43088223 133.72809216 385.1885133 132.95254986 384.93879986 132.15350628 C383.35594827 127.42088592 381.76885592 124.08485722 377.5443449 121.12863445 C374.51729597 120.48518063 371.60781664 120.54418001 368.52481365 120.6403532 C367.66624264 120.64742794 366.80767162 120.65450268 365.92308331 120.6617918 C363.19176888 120.68969043 360.46253532 120.75241754 357.7318449 120.81613445 C355.8757548 120.84122331 354.01963244 120.86403546 352.16348553 120.88449383 C347.62297518 120.93950192 343.08401233 121.02574081 338.5443449 121.12863445 Z M191.5443449 172.12863445 C191.5443449 183.01863445 191.5443449 193.90863445 191.5443449 205.12863445 C202.1043449 205.12863445 212.6643449 205.12863445 223.5443449 205.12863445 C223.2349699 200.61175945 222.9255949 196.09488445 222.6068449 191.44113445 C222.51153484 190.0248576 222.41622478 188.60858074 222.31802654 187.14938641 C222.23931316 186.02492107 222.16059978 184.90045574 222.07950115 183.7419157 C222.00094891 182.59505291 221.92239666 181.44819012 221.84146404 180.26657391 C221.56726104 176.79770959 221.56726104 176.79770959 220.5443449 172.12863445 C210.9743449 172.12863445 201.4043449 172.12863445 191.5443449 172.12863445 Z M238.5443449 172.12863445 C238.8537199 176.45988445 239.1630949 180.79113445 239.4818449 185.25363445 C239.57715496 186.60860027 239.67246502 187.96356609 239.77066326 189.35959148 C239.84937664 190.44095379 239.92809002 191.52231609 240.00918865 192.63644695 C240.0877409 193.7361784 240.16629314 194.83590984 240.24722576 195.96896648 C240.53592626 199.0391077 241.03739016 202.08690601 241.5443449 205.12863445 C255.0743449 205.12863445 268.6043449 205.12863445 282.5443449 205.12863445 C281.7399699 200.05488445 280.9355949 194.98113445 280.1068449 189.75363445 C279.72894817 187.35331951 279.72894817 187.35331951 279.34341717 184.90451336 C279.04262249 183.02385174 279.04262249 183.02385174 278.73575115 181.10519695 C278.53151531 179.81694012 278.32727947 178.52868328 278.11685467 177.20138836 C277.70905392 174.22820334 277.70905392 174.22820334 276.5443449 172.12863445 C264.0043449 172.12863445 251.4643449 172.12863445 238.5443449 172.12863445 Z M-64.4556551 223.12863445 C-64.4556551 229.72863445 -64.4556551 236.32863445 -64.4556551 243.12863445 C-59.73231457 248.23053059 -59.73231457 248.23053059 -53.79808378 248.79331237 C-52.69849278 248.77575362 -52.69849278 248.77575362 -51.57668781 248.75784016 C-50.78563444 248.76510736 -49.99458106 248.77237456 -49.17955637 248.77986199 C-46.51817939 248.798168 -43.85823345 248.78073132 -41.19686604 248.76355267 C-39.27394974 248.76931165 -37.35103893 248.77725127 -35.42813969 248.78718889 C-30.13580704 248.80811597 -24.84392356 248.79772034 -19.55158901 248.7822578 C-13.84733842 248.7709722 -8.14316655 248.78839312 -2.43893147 248.8021574 C8.73892713 248.82442418 19.91661813 248.81957327 31.09448338 248.8050942 C40.17662084 248.79381549 49.25871124 248.79226513 58.34085369 248.79771328 C59.63205096 248.79847944 60.92324824 248.79924561 62.2535727 248.80003499 C64.87637839 248.80163357 67.49918407 248.80325464 70.12198973 248.80489795 C94.0307618 248.81875858 117.9394385 248.80436944 141.84819537 248.77818496 C163.68055466 248.75445637 185.51276814 248.75657948 207.34512615 248.78048992 C231.86607618 248.80725501 256.38693253 248.81779215 280.907897 248.8024286 C283.52121002 248.80083581 286.13452306 248.79926396 288.74783611 248.79771328 C290.67668144 248.79655621 290.67668144 248.79655621 292.64449334 248.79537577 C301.71875573 248.79105342 310.79296649 248.79835685 319.86722088 248.81011105 C330.92138882 248.82411474 341.97537919 248.82038092 353.02952671 248.79370733 C358.67267287 248.78054054 364.31552264 248.77546559 369.9586668 248.79195309 C375.12038338 248.80680625 380.28152766 248.79874102 385.44319201 248.77206533 C387.31458038 248.76646066 389.18601669 248.76936498 391.05737448 248.78144427 C393.59407079 248.79656747 396.12878617 248.78114317 398.66537762 248.75784016 C399.76496862 248.7753989 399.76496862 248.7753989 400.88677359 248.79331237 C406.74494641 248.68514418 406.89706235 247.77591701 411.5443449 243.12863445 C411.5443449 236.52863445 411.5443449 229.92863445 411.5443449 223.12863445 C254.4643449 223.12863445 97.3843449 223.12863445 -64.4556551 223.12863445 Z M76.5443449 266.12863445 C77.5008871 267.25028439 78.45823699 268.37124558 79.41592693 269.4919157 C79.94896435 270.11622478 80.48200176 270.74053387 81.03119183 271.38376141 C82.75779299 273.37476937 84.55192242 275.26922666 86.4193449 277.12863445 C87.01489178 277.72675945 87.61043865 278.32488445 88.2240324 278.94113445 C90.1192669 280.72788752 92.04613407 282.41690794 94.02530193 284.10739422 C99.30673347 288.72149982 104.22650766 293.68552986 109.1693449 298.6559782 C110.16660167 299.65510474 111.16408293 300.65400725 112.16177654 301.65269756 C114.76140169 304.25610395 117.35800721 306.86250115 119.95395184 309.46957684 C122.61374253 312.13967719 125.27643831 314.80687723 127.93887615 317.47433758 C133.14351378 322.68963483 138.3449583 327.90810161 143.5443449 333.12863445 C144.16019451 332.34077557 144.77604412 331.55291668 145.41055584 330.74118328 C147.40395784 328.30052026 149.24851763 326.640644 151.7943449 324.81613445 C152.50075115 324.30437664 153.2071574 323.79261883 153.9349699 323.2653532 C154.46606365 322.89023602 154.9971574 322.51511883 155.5443449 322.12863445 C147.76538303 312.88696872 139.49823188 304.09253181 131.12862873 295.38729477 C128.3703601 292.51530844 125.63938847 289.62537522 122.96036053 286.67917156 C110.50494358 272.04537355 110.50494358 272.04537355 93.59024334 264.62814617 C87.79996305 264.39413552 82.20874926 264.9246346 76.5443449 266.12863445 Z M126.5443449 266.12863445 C130.03327438 270.19905218 133.32191751 274.03112351 137.080966 277.77878094 C137.92138439 278.6191238 138.76180279 279.45946667 139.62768841 280.32527447 C140.95928493 281.64912907 140.95928493 281.64912907 142.3177824 282.9997282 C143.7033987 284.38322208 143.7033987 284.38322208 145.11700726 285.79466534 C147.55109921 288.22497259 149.98818087 290.65225941 152.4259367 293.0788908 C154.92167601 295.56432809 157.41452199 298.05266377 159.90762615 300.54074383 C164.78373351 305.40618541 169.66301121 310.26843644 174.5443449 315.12863445 C180.49548909 310.19244533 185.95650938 304.86180288 191.41543865 299.3903532 C192.33776791 298.46898067 193.26009716 297.54760815 194.21037579 296.59831524 C196.14746251 294.66269229 198.08275498 292.72529835 200.01675701 290.78659344 C202.50060286 288.29700294 204.98897648 285.81199362 207.47867012 283.32825279 C209.85584911 280.95553801 212.22923113 278.57904097 214.60293865 276.2028532 C215.499678 275.30813808 216.39641735 274.41342297 217.32033062 273.49159527 C218.13860836 272.67016537 218.9568861 271.84873547 219.79996014 271.00241375 C220.52497219 270.2766061 221.24998425 269.55079845 221.99696636 268.80299664 C223.65746315 267.3862139 223.65746315 267.3862139 223.5443449 266.12863445 C191.5343449 266.12863445 159.5243449 266.12863445 126.5443449 266.12863445 Z M222.07425213 292.08810711 C218.8832635 295.50627859 215.62714194 298.8611914 212.37637615 302.22238445 C206.03467174 308.79834983 199.76709794 315.44013265 193.5443449 322.12863445 C194.43736147 323.193503 195.3339396 324.25538487 196.2318449 325.31613445 C196.73071209 325.90781414 197.22957928 326.49949383 197.74356365 327.1091032 C199.91747934 329.54709541 202.21929333 331.83527012 204.5443449 334.12863445 C213.28298253 325.41311519 222.01895623 316.69493562 230.75149059 307.97330093 C234.8059591 303.92406237 238.86135724 299.87576387 242.91885662 295.82956219 C246.83079459 291.92844916 250.74032086 288.02493449 254.64815044 284.11970615 C256.14329247 282.62641909 257.6393177 281.13401581 259.13621807 279.64249134 C261.22443969 277.56147493 263.30956556 275.47740496 265.39395428 273.39255047 C266.02045376 272.76964626 266.64695324 272.14674206 267.29243755 271.50496197 C270.18382703 269.18783814 270.18382703 269.18783814 271.5443449 266.12863445 C248.24393046 260.0604733 236.4964165 276.52535962 222.07425213 292.08810711 Z M161.7318449 339.56613445 C157.77184161 344.20499545 157.09535723 347.64952649 157.22793865 353.65988445 C157.8592166 358.5854112 160.57488112 361.27458303 164.1693449 364.44113445 C168.84580247 367.76388062 172.91972688 367.7189242 178.5443449 367.12863445 C182.7503 365.81377843 185.2350259 363.51726602 187.9818449 360.06613445 C190.3384686 355.30165611 190.42668571 350.30097712 189.5443449 345.12863445 C187.48304163 340.4653582 184.27064801 337.10708692 179.5443449 335.12863445 C172.19159726 333.4683366 167.60885524 334.47272549 161.7318449 339.56613445 Z M202.5443449 369.12863445 C201.41197297 370.35314163 200.31363055 371.60921575 199.2318449 372.87863445 C196.77526966 375.75618463 194.23073434 378.46489585 191.5443449 381.12863445 C197.07384927 387.19584806 202.66645706 393.19459685 208.34563065 399.12160015 C210.98235662 401.87741112 213.59391639 404.64975258 216.15591717 407.47531414 C228.06131607 421.47090006 228.06131607 421.47090006 244.20401287 428.56613445 C249.75319511 428.78750021 255.1150186 428.27840015 260.5443449 427.12863445 C255.05003432 420.44332812 248.9551377 414.3937653 242.83731365 408.2887907 C241.70470612 407.15550864 240.572247 406.02207824 239.43992901 404.88850689 C237.08060206 402.52771363 234.71949556 400.16871897 232.35708904 397.8110075 C229.32269703 394.78235158 226.29286943 391.74917513 223.2643261 388.71467209 C220.93366197 386.38040691 218.60063697 384.04851314 216.26687336 381.71734715 C215.14772652 380.59886881 214.02932597 379.47964324 212.91167545 378.35966969 C211.35828098 376.80375197 209.80174603 375.25104784 208.24429607 373.69919109 C207.35860439 372.81429501 206.47291271 371.92939892 205.56038189 371.0176878 C203.88318839 369.01467578 203.88318839 369.01467578 202.5443449 369.12863445 Z M144.5443449 371.12863445 C137.37031246 378.27954684 130.19894559 385.43312041 123.03101635 392.59015083 C119.70295734 395.91298027 116.37396999 399.23486865 113.04288006 402.55465984 C109.83119766 405.75551598 106.62192924 408.95877383 103.41435528 412.16374683 C102.18715753 413.38908986 100.95907674 414.61354914 99.73012066 415.83712864 C98.01549301 417.54454933 96.3039675 419.25502077 94.59317303 420.96628094 C94.07888241 421.47697628 93.56459179 421.98767162 93.03471661 422.51384258 C90.60812561 424.48091251 90.60812561 424.48091251 89.5443449 427.12863445 C98.00566608 428.97007077 106.91815911 429.93294545 114.58914471 425.28293133 C121.70080068 419.63751534 127.82083392 412.9743867 133.91525555 406.26834393 C136.44215133 403.51360403 139.03503486 400.82245852 141.6224699 398.1247282 C146.66180116 392.85163074 151.62529841 387.51438858 156.5443449 382.12863445 C152.74022656 378.2092398 148.72858382 374.63760715 144.5443449 371.12863445 Z M47.5443449 448.12863445 C45.99847614 451.22037197 46.25074969 453.72292998 46.5443449 457.12863445 C47.80606136 459.53768853 47.80606136 459.53768853 50.5443449 461.12863445 C54.18432876 461.74681089 57.792896 461.71269169 61.47793865 461.6950407 C62.5480267 461.70123928 63.61811474 461.70743786 64.72062969 461.71382427 C66.98257824 461.72092484 69.24457903 461.71774437 71.50650311 461.70505047 C74.96606058 461.69119766 78.42290707 461.72523938 81.88223553 461.76340008 C84.0808039 461.76435139 86.27937565 461.76249179 88.47793865 461.7575407 C89.51139919 461.77079891 90.54485973 461.78405712 91.60963726 461.79771709 C96.39526918 461.73573807 98.77354009 461.7019835 102.70083904 458.78073406 C104.74329924 456.23197083 104.74329924 456.23197083 105.1068449 453.06613445 C104.42612975 449.51128865 103.34362031 448.35158845 100.5443449 446.12863445 C98.20116692 444.95704546 96.78567872 444.98985778 94.17398357 444.96750164 C93.2693185 444.9578941 92.36465343 444.94828655 91.43257427 444.93838787 C90.45238827 444.93413799 89.47220226 444.92988811 88.46231365 444.92550945 C87.45598385 444.91980938 86.44965405 444.91410931 85.4128294 444.9082365 C83.28016495 444.8987786 81.14748583 444.89224939 79.01480389 444.88840008 C75.75551015 444.87870485 72.49684965 444.84769286 69.23770428 444.81613445 C67.16674448 444.80960345 65.09578018 444.80435336 63.02481365 444.80050945 C61.56364368 444.78198925 61.56364368 444.78198925 60.07295513 444.7630949 C53.31575625 444.78367506 53.31575625 444.78367506 47.5443449 448.12863445 Z M244.5443449 447.12863445 C242.19884816 450.64687957 241.96443087 451.9863914 242.5443449 456.12863445 C244.5993004 459.10188367 246.23526824 460.86782482 249.86419964 461.59082317 C252.79114258 461.77514116 255.67818435 461.79516244 258.61075115 461.7575407 C259.68179592 461.75995266 260.75284069 461.76236462 261.85634136 461.76484966 C264.11655671 461.76387167 266.37679615 461.75048975 268.6368742 461.72555828 C272.09839351 461.69121829 275.55736446 461.70491117 279.01895428 461.72433758 C281.21623078 461.71744002 283.41350069 461.70776847 285.61075115 461.6950407 C286.64623592 461.70000057 287.6817207 461.70496044 288.74858379 461.71007061 C294.31470456 461.68888242 294.31470456 461.68888242 299.19644451 459.31198406 C301.19442477 456.07562516 301.07582088 453.84896632 300.5443449 450.12863445 C298.67725986 447.76366006 297.22373059 446.4683273 294.5443449 445.12863445 C293.08485907 445.02906363 291.62097627 444.99033504 290.15811443 444.98337078 C289.25022167 444.97699093 288.34232891 444.97061108 287.40692425 444.9640379 C286.42360119 444.96292507 285.44027813 444.96181225 284.4271574 444.9606657 C282.91410519 444.9556731 282.91410519 444.9556731 281.37048626 444.95057964 C279.23361957 444.9455104 277.09674494 444.94317132 274.95987225 444.94333172 C271.68971983 444.94114806 268.4199062 444.92299999 265.14981365 444.90402508 C263.07559606 444.90109061 261.00137686 444.89910617 258.9271574 444.8981657 C257.9478828 444.89098019 256.96860821 444.88379467 255.95965862 444.87639141 C254.588363 444.88100636 254.588363 444.88100636 253.18936443 444.88571453 C252.38709423 444.88428951 251.58482403 444.88286449 250.75824261 444.88139629 C248.23468963 445.16321536 246.68055564 445.76365055 244.5443449 447.12863445 Z " fill="#000000" transform="translate(82.45565509796143,16.871365547180176)"/>
<path d="M0 0 C1.85444481 -0.00786278 1.85444481 -0.00786278 3.74635315 -0.0158844 C6.35441336 -0.02229266 8.96250251 -0.02098317 11.57055664 -0.01245117 C15.549517 -0.00394237 19.52704069 -0.03272097 23.50585938 -0.06445312 C26.04557249 -0.06606537 28.58528813 -0.06548715 31.125 -0.0625 C32.90033363 -0.07935097 32.90033363 -0.07935097 34.71153259 -0.09654236 C42.74550712 -0.0291297 47.84383917 1.17997644 54.3359375 6.109375 C60.31963065 12.20953906 62.63973421 18.14455624 63.1875 26.6640625 C63.02114784 34.5269744 59.39608367 40.76816633 54.12890625 46.43359375 C46.57537934 52.54070061 38.99418296 52.74968346 29.67578125 52.76953125 C28.579776 52.77618805 27.48377075 52.78284485 26.35455322 52.78970337 C24.04156159 52.79979991 21.72854099 52.80452132 19.41552734 52.80419922 C15.90412546 52.80856241 12.39399157 52.84488842 8.8828125 52.8828125 C6.62630634 52.8886835 4.36979426 52.89265099 2.11328125 52.89453125 C1.07645203 52.90890228 0.0396228 52.92327332 -1.02862549 52.93807983 C-9.79820865 52.88399032 -18.11068407 51.24137752 -24.80859375 45.24609375 C-30.80456539 38.42855869 -32.63310642 31.6888552 -32.31640625 22.65234375 C-31.2726429 15.10794902 -27.72900159 9.48876401 -21.91015625 4.6875 C-14.58868849 0.1852181 -8.48471713 -0.02100918 0 0 Z M-13.87109375 23.43359375 C-14.78776042 26.43359375 -14.78776042 26.43359375 -13.87109375 29.43359375 C-10.44762004 33.23255425 -8.18134889 34.72648519 -3.04663086 35.04882812 C-1.16398578 35.06819955 0.71909253 35.05950871 2.6015625 35.02734375 C3.60223251 35.02738403 4.60290253 35.02742432 5.63389587 35.02746582 C7.74272974 35.02211953 9.8515637 35.00457513 11.96020508 34.97558594 C15.18437673 34.9336851 18.40646095 34.93452439 21.63085938 34.94140625 C23.68360823 34.9309146 25.73634636 34.91797664 27.7890625 34.90234375 C29.23141014 34.90204163 29.23141014 34.90204163 30.70289612 34.9017334 C35.60119459 34.81524856 39.22403265 34.74272569 43.12890625 31.43359375 C44.78750225 28.62463312 44.78750225 28.62463312 45.12890625 25.43359375 C43.79764178 22.50481191 42.3958566 20.7005441 40.12890625 18.43359375 C37.98323949 18.10727399 37.98323949 18.10727399 35.4831543 18.12719727 C34.51842697 18.11120987 33.55369965 18.09522247 32.55973816 18.07875061 C31.51393082 18.07338791 30.46812347 18.06802521 29.390625 18.0625 C27.78124809 18.04895729 27.78124809 18.04895729 26.13935852 18.03514099 C23.86547649 18.02061202 21.59155241 18.01174521 19.31762695 18.00805664 C15.84058897 17.99617638 12.36533415 17.94702801 8.88867188 17.89648438 C6.68099826 17.88701875 4.47331372 17.87978438 2.265625 17.875 C1.22589035 17.85546768 0.1861557 17.83593536 -0.88508606 17.81581116 C-6.90589402 17.85337371 -10.19140549 18.14875397 -13.87109375 23.43359375 Z " fill="#000000" transform="translate(116.87109375,51.56640625)"/>
<path d="M0 0 C7.76580925 4.81480174 13.46319156 10.03176269 15.65234375 19.12890625 C16.97159126 27.65213454 15.02325271 34.85742679 10.03515625 41.85546875 C4.54593291 47.83860993 -2.112029 50.56393365 -10.0625 51.1875 C-17.4280663 50.70451205 -23.92873068 48.92909365 -29.33984375 43.72265625 C-34.94963177 37.19931496 -37.26430505 30.55087431 -36.875 21.9375 C-35.69031181 13.59532063 -31.7119965 7.80934175 -25.19140625 2.58984375 C-18.33515163 -2.18046807 -7.85603715 -2.97798618 0 0 Z M-16.25 18.6875 C-18.35727448 21.54788065 -18.35727448 21.54788065 -18.875 24.9375 C-17.67051104 28.10720778 -16.71702174 30.29195 -14 32.375 C-11.186009 33.11987997 -9.62425269 32.89973844 -6.875 31.9375 C-4.43804526 30.41731752 -4.43804526 30.41731752 -2.875 27.9375 C-2.31211998 23.99733987 -2.27103972 21.87967804 -4.4375 18.5 C-8.56611067 15.8534547 -12.27221832 15.75650297 -16.25 18.6875 Z " fill="#000000" transform="translate(385.875,53.0625)"/>
<path d="M0 0 C0.76376953 -0.02449219 1.52753906 -0.04898438 2.31445312 -0.07421875 C6.05187624 -0.09373532 7.95341367 -0.07147086 11.03515625 2.1875 C13.22718746 5.32698204 13.5625 7.55855271 13.5625 11.375 C10.63712687 17.01679104 10.63712687 17.01679104 6.5625 18.375 C4.4408532 18.52054833 2.31393294 18.59580412 0.1875 18.625 C-0.93398438 18.65078125 -2.05546875 18.6765625 -3.2109375 18.703125 C-6.79185126 18.33896428 -8.58601793 17.5312444 -11.4375 15.375 C-13.76286063 11.88695905 -13.77207898 10.47359246 -13.4375 6.375 C-11.07778912 -0.15958399 -6.15346849 0.01033328 0 0 Z " fill="#000000" transform="translate(294.4375,85.625)"/>
<path d="M0 0 C0.75087891 -0.02384766 1.50175781 -0.04769531 2.27539062 -0.07226562 C6.47428018 -0.06118676 8.1307258 0.22911185 11.5625 2.87890625 C13.5625 5.5625 13.5625 5.5625 14.125 9.0625 C13.47838349 13.08589163 12.46231674 14.74553517 9.5625 17.5625 C3.59222384 19.55259205 -3.11994813 19.32169803 -9.0625 17.375 C-11.8868208 15.21959729 -12.71115838 14.03279887 -13.4375 10.5625 C-13.29834054 7.15309327 -12.89226716 5.20219805 -10.91015625 2.4140625 C-7.42413854 -0.19632043 -4.18467562 -0.06075106 0 0 Z " fill="#000000" transform="translate(251.4375,51.4375)"/>
<path d="M0 0 C0.76828125 -0.02900391 1.5365625 -0.05800781 2.328125 -0.08789062 C6.08295172 -0.13011619 7.99996406 -0.14225056 11.10546875 2.1171875 C13.25191485 5.21822275 13.55923202 7.56372532 13.625 11.3125 C12.34718407 14.50703983 11.47336 15.88979798 8.3828125 17.4296875 C5.3317246 18.40638136 2.82438975 18.61275744 -0.375 18.625 C-1.385625 18.64175781 -2.39625 18.65851563 -3.4375 18.67578125 C-6.82139709 18.25729398 -8.64965492 17.3328513 -11.375 15.3125 C-13.71409307 11.8038604 -13.78791057 10.44160567 -13.375 6.3125 C-10.16928778 -0.24463862 -6.81081495 0.08485235 0 0 Z " fill="#000000" transform="translate(294.375,51.6875)"/>
<path d="M0 0 C1.06734375 -0.01740234 1.06734375 -0.01740234 2.15625 -0.03515625 C5.28225688 -0.01765994 7.63753023 0.18911807 10.4375 1.625 C12.84493724 4.32132971 12.92046169 6.64007907 13.171875 10.1484375 C12.90886638 13.55559459 11.49990832 15.15285927 9 17.375 C5.69664934 18.47611689 3.10167863 18.57726528 -0.375 18.625 C-1.49648437 18.65078125 -2.61796875 18.6765625 -3.7734375 18.703125 C-7.35633403 18.33876264 -9.17400016 17.57694602 -12 15.375 C-13.5402467 11.75876861 -14.25271313 9.48693778 -13.375 5.625 C-10.03131152 0.15350976 -6.04566981 -0.0985707 0 0 Z " fill="#000000" transform="translate(252,85.625)"/>
<path d="M0 0 C0.69867188 -0.01933594 1.39734375 -0.03867188 2.1171875 -0.05859375 C6.01389781 -0.02183233 7.85862261 0.51603324 10.96484375 2.91015625 C14.01403627 6.97769713 13.71046028 8.65177804 13 13.625 C11.12984906 16.05619623 9.71861655 17.26569173 7 18.625 C-6.4229401 19.82962283 -6.4229401 19.82962283 -10.875 16.625 C-13.2154607 13.32082018 -13.67542433 11.62151145 -13.69921875 7.6875 C-11.42931237 0.99191023 -6.38960396 -0.17683406 0 0 Z " fill="#000000" transform="translate(209,85.375)"/>
<path d="M0 0 C0.69867188 -0.01933594 1.39734375 -0.03867187 2.1171875 -0.05859375 C6.01389781 -0.02183233 7.85862261 0.51603324 10.96484375 2.91015625 C14.01403627 6.97769713 13.71046028 8.65177804 13 13.625 C10.79259319 16.59358157 9.51402627 17.45365791 6 18.625 C4.04524991 18.7697963 2.0848862 18.84567502 0.125 18.875 C-1.41800781 18.91367188 -1.41800781 18.91367188 -2.9921875 18.953125 C-7.36157798 18.47646422 -9.9371613 16.6878387 -13 13.625 C-13.79544584 6.6932577 -13.79544584 6.6932577 -10.97265625 2.90234375 C-7.2880826 0.07960205 -4.46431076 -0.12355104 0 0 Z " fill="#000000" transform="translate(209,51.375)"/>
</svg>
