<?xml version="1.0" encoding="UTF-8"?>
<svg version="1.1" xmlns="http://www.w3.org/2000/svg" width="96" height="96">
<path d="M0 0 C8.80288754 6.34043826 15.4186507 14.72648904 17.58203125 25.4921875 C18.92007691 37.90936834 17.85729499 48.88109459 10.39453125 59.2421875 C3.58210875 67.3274193 -4.72289951 73.55522767 -15.48876953 74.71533203 C-28.40007937 75.61089799 -39.16843729 74.04490094 -49.3515625 65.46484375 C-57.86959925 57.33325857 -62.42046403 48.68416257 -62.88867188 36.85693359 C-63.04371176 24.34263074 -60.22647828 14.71931927 -51.41796875 5.4921875 C-37.63784493 -7.66275112 -16.31305228 -10.17259803 0 0 Z M-32.41796875 10.4921875 C-35.24402749 14.7312756 -35.07809121 18.51343253 -34.41796875 23.4921875 C-32.36689287 26.88707172 -30.71312254 28.29541831 -27.41796875 30.4921875 C-22.5915406 31.19570076 -18.63431425 31.22706291 -14.41796875 28.6796875 C-10.43648568 24.32494039 -9.98581963 21.63290248 -10.09375 15.9375 C-10.55028644 12.49422518 -11.8863752 10.80678732 -14.41796875 8.4921875 C-20.33934576 4.54460283 -27.56451637 5.18372396 -32.41796875 10.4921875 Z M-47.41796875 51.4921875 C-46.0894367 57.13844873 -42.09276449 59.58713586 -37.41796875 62.4921875 C-30.00805631 66.77205072 -20.6987042 66.76042383 -12.5390625 64.80078125 C-7.15511235 62.83625593 -2.09046186 59.98453381 1.58203125 55.4921875 C2.29140468 53.38827484 2.29140468 53.38827484 2.58203125 51.4921875 C-5.07986368 44.09449585 -14.59863365 42.91436704 -24.77294922 43.015625 C-33.35293542 43.33440853 -41.08816821 45.38065595 -47.41796875 51.4921875 Z " fill="#FFFFFF" transform="translate(70.41796875,13.5078125)"/>
</svg>
